<?xml version="1.0" encoding="utf-8" standalone="no"?>
<!DOCTYPE svg PUBLIC "-//W3C//DTD SVG 1.1//EN"
  "http://www.w3.org/Graphics/SVG/1.1/DTD/svg11.dtd">
<svg xmlns:xlink="http://www.w3.org/1999/xlink" width="180.89375pt" height="402.077344pt" viewBox="0 0 180.89375 402.077344" xmlns="http://www.w3.org/2000/svg" version="1.1">
 <metadata>
  <rdf:RDF xmlns:dc="http://purl.org/dc/elements/1.1/" xmlns:cc="http://creativecommons.org/ns#" xmlns:rdf="http://www.w3.org/1999/02/22-rdf-syntax-ns#">
   <cc:Work>
    <dc:type rdf:resource="http://purl.org/dc/dcmitype/StillImage"/>
    <dc:date>2025-02-21T18:19:49.169861</dc:date>
    <dc:format>image/svg+xml</dc:format>
    <dc:creator>
     <cc:Agent>
      <dc:title>Matplotlib v3.8.4, https://matplotlib.org/</dc:title>
     </cc:Agent>
    </dc:creator>
   </cc:Work>
  </rdf:RDF>
 </metadata>
 <defs>
  <style type="text/css">*{stroke-linejoin: round; stroke-linecap: butt}</style>
 </defs>
 <g id="figure_1">
  <g id="patch_1">
   <path d="M 0 402.077344 
L 180.89375 402.077344 
L 180.89375 0 
L 0 0 
L 0 402.077344 
z
" style="fill: none"/>
  </g>
  <g id="axes_1">
   <g id="patch_2">
    <path d="M 25.951562 367.399219 
L 141.151562 367.399219 
L 141.151562 21.799219 
L 25.951562 21.799219 
L 25.951562 367.399219 
z
" style="fill: none"/>
   </g>
   <g id="matplotlib.axis_1">
    <g id="xtick_1">
     <g id="line2d_1">
      <path d="M 141.151562 367.399219 
L 141.151562 21.799219 
" clip-path="url(#p77d1bd1bdd)" style="fill: none; stroke-dasharray: 0.925,0.4; stroke-dashoffset: 0; stroke: #b0b0b0; stroke-width: 0.25"/>
     </g>
     <g id="line2d_2">
      <defs>
       <path id="mbb4d158a17" d="M 0 0 
L 0 3.5 
" style="stroke: #000000; stroke-width: 0.8"/>
      </defs>
      <g>
       <use xlink:href="#mbb4d158a17" x="141.151562" y="367.399219" style="stroke: #000000; stroke-width: 0.8"/>
      </g>
     </g>
     <g id="text_1">
      <!-- 0.0 -->
      <g transform="translate(133.2 381.997656) scale(0.1 -0.1)">
       <defs>
        <path id="DejaVuSans-30" d="M 2034 4250 
Q 1547 4250 1301 3770 
Q 1056 3291 1056 2328 
Q 1056 1369 1301 889 
Q 1547 409 2034 409 
Q 2525 409 2770 889 
Q 3016 1369 3016 2328 
Q 3016 3291 2770 3770 
Q 2525 4250 2034 4250 
z
M 2034 4750 
Q 2819 4750 3233 4129 
Q 3647 3509 3647 2328 
Q 3647 1150 3233 529 
Q 2819 -91 2034 -91 
Q 1250 -91 836 529 
Q 422 1150 422 2328 
Q 422 3509 836 4129 
Q 1250 4750 2034 4750 
z
" transform="scale(0.015625)"/>
        <path id="DejaVuSans-2e" d="M 684 794 
L 1344 794 
L 1344 0 
L 684 0 
L 684 794 
z
" transform="scale(0.015625)"/>
       </defs>
       <use xlink:href="#DejaVuSans-30"/>
       <use xlink:href="#DejaVuSans-2e" x="63.623047"/>
       <use xlink:href="#DejaVuSans-30" x="95.410156"/>
      </g>
     </g>
    </g>
    <g id="xtick_2">
     <g id="line2d_3">
      <path d="M 118.111562 367.399219 
L 118.111562 21.799219 
" clip-path="url(#p77d1bd1bdd)" style="fill: none; stroke-dasharray: 0.925,0.4; stroke-dashoffset: 0; stroke: #b0b0b0; stroke-width: 0.25"/>
     </g>
     <g id="line2d_4">
      <g>
       <use xlink:href="#mbb4d158a17" x="118.111562" y="367.399219" style="stroke: #000000; stroke-width: 0.8"/>
      </g>
     </g>
     <g id="text_2">
      <!-- 0.2 -->
      <g transform="translate(110.16 381.997656) scale(0.1 -0.1)">
       <defs>
        <path id="DejaVuSans-32" d="M 1228 531 
L 3431 531 
L 3431 0 
L 469 0 
L 469 531 
Q 828 903 1448 1529 
Q 2069 2156 2228 2338 
Q 2531 2678 2651 2914 
Q 2772 3150 2772 3378 
Q 2772 3750 2511 3984 
Q 2250 4219 1831 4219 
Q 1534 4219 1204 4116 
Q 875 4013 500 3803 
L 500 4441 
Q 881 4594 1212 4672 
Q 1544 4750 1819 4750 
Q 2544 4750 2975 4387 
Q 3406 4025 3406 3419 
Q 3406 3131 3298 2873 
Q 3191 2616 2906 2266 
Q 2828 2175 2409 1742 
Q 1991 1309 1228 531 
z
" transform="scale(0.015625)"/>
       </defs>
       <use xlink:href="#DejaVuSans-30"/>
       <use xlink:href="#DejaVuSans-2e" x="63.623047"/>
       <use xlink:href="#DejaVuSans-32" x="95.410156"/>
      </g>
     </g>
    </g>
    <g id="xtick_3">
     <g id="line2d_5">
      <path d="M 95.071562 367.399219 
L 95.071562 21.799219 
" clip-path="url(#p77d1bd1bdd)" style="fill: none; stroke-dasharray: 0.925,0.4; stroke-dashoffset: 0; stroke: #b0b0b0; stroke-width: 0.25"/>
     </g>
     <g id="line2d_6">
      <g>
       <use xlink:href="#mbb4d158a17" x="95.071562" y="367.399219" style="stroke: #000000; stroke-width: 0.8"/>
      </g>
     </g>
     <g id="text_3">
      <!-- 0.4 -->
      <g transform="translate(87.12 381.997656) scale(0.1 -0.1)">
       <defs>
        <path id="DejaVuSans-34" d="M 2419 4116 
L 825 1625 
L 2419 1625 
L 2419 4116 
z
M 2253 4666 
L 3047 4666 
L 3047 1625 
L 3713 1625 
L 3713 1100 
L 3047 1100 
L 3047 0 
L 2419 0 
L 2419 1100 
L 313 1100 
L 313 1709 
L 2253 4666 
z
" transform="scale(0.015625)"/>
       </defs>
       <use xlink:href="#DejaVuSans-30"/>
       <use xlink:href="#DejaVuSans-2e" x="63.623047"/>
       <use xlink:href="#DejaVuSans-34" x="95.410156"/>
      </g>
     </g>
    </g>
    <g id="xtick_4">
     <g id="line2d_7">
      <path d="M 72.031562 367.399219 
L 72.031562 21.799219 
" clip-path="url(#p77d1bd1bdd)" style="fill: none; stroke-dasharray: 0.925,0.4; stroke-dashoffset: 0; stroke: #b0b0b0; stroke-width: 0.25"/>
     </g>
     <g id="line2d_8">
      <g>
       <use xlink:href="#mbb4d158a17" x="72.031562" y="367.399219" style="stroke: #000000; stroke-width: 0.8"/>
      </g>
     </g>
     <g id="text_4">
      <!-- 0.6 -->
      <g transform="translate(64.08 381.997656) scale(0.1 -0.1)">
       <defs>
        <path id="DejaVuSans-36" d="M 2113 2584 
Q 1688 2584 1439 2293 
Q 1191 2003 1191 1497 
Q 1191 994 1439 701 
Q 1688 409 2113 409 
Q 2538 409 2786 701 
Q 3034 994 3034 1497 
Q 3034 2003 2786 2293 
Q 2538 2584 2113 2584 
z
M 3366 4563 
L 3366 3988 
Q 3128 4100 2886 4159 
Q 2644 4219 2406 4219 
Q 1781 4219 1451 3797 
Q 1122 3375 1075 2522 
Q 1259 2794 1537 2939 
Q 1816 3084 2150 3084 
Q 2853 3084 3261 2657 
Q 3669 2231 3669 1497 
Q 3669 778 3244 343 
Q 2819 -91 2113 -91 
Q 1303 -91 875 529 
Q 447 1150 447 2328 
Q 447 3434 972 4092 
Q 1497 4750 2381 4750 
Q 2619 4750 2861 4703 
Q 3103 4656 3366 4563 
z
" transform="scale(0.015625)"/>
       </defs>
       <use xlink:href="#DejaVuSans-30"/>
       <use xlink:href="#DejaVuSans-2e" x="63.623047"/>
       <use xlink:href="#DejaVuSans-36" x="95.410156"/>
      </g>
     </g>
    </g>
    <g id="xtick_5">
     <g id="line2d_9">
      <path d="M 48.991562 367.399219 
L 48.991562 21.799219 
" clip-path="url(#p77d1bd1bdd)" style="fill: none; stroke-dasharray: 0.925,0.4; stroke-dashoffset: 0; stroke: #b0b0b0; stroke-width: 0.25"/>
     </g>
     <g id="line2d_10">
      <g>
       <use xlink:href="#mbb4d158a17" x="48.991562" y="367.399219" style="stroke: #000000; stroke-width: 0.8"/>
      </g>
     </g>
     <g id="text_5">
      <!-- 0.8 -->
      <g transform="translate(41.04 381.997656) scale(0.1 -0.1)">
       <defs>
        <path id="DejaVuSans-38" d="M 2034 2216 
Q 1584 2216 1326 1975 
Q 1069 1734 1069 1313 
Q 1069 891 1326 650 
Q 1584 409 2034 409 
Q 2484 409 2743 651 
Q 3003 894 3003 1313 
Q 3003 1734 2745 1975 
Q 2488 2216 2034 2216 
z
M 1403 2484 
Q 997 2584 770 2862 
Q 544 3141 544 3541 
Q 544 4100 942 4425 
Q 1341 4750 2034 4750 
Q 2731 4750 3128 4425 
Q 3525 4100 3525 3541 
Q 3525 3141 3298 2862 
Q 3072 2584 2669 2484 
Q 3125 2378 3379 2068 
Q 3634 1759 3634 1313 
Q 3634 634 3220 271 
Q 2806 -91 2034 -91 
Q 1263 -91 848 271 
Q 434 634 434 1313 
Q 434 1759 690 2068 
Q 947 2378 1403 2484 
z
M 1172 3481 
Q 1172 3119 1398 2916 
Q 1625 2713 2034 2713 
Q 2441 2713 2670 2916 
Q 2900 3119 2900 3481 
Q 2900 3844 2670 4047 
Q 2441 4250 2034 4250 
Q 1625 4250 1398 4047 
Q 1172 3844 1172 3481 
z
" transform="scale(0.015625)"/>
       </defs>
       <use xlink:href="#DejaVuSans-30"/>
       <use xlink:href="#DejaVuSans-2e" x="63.623047"/>
       <use xlink:href="#DejaVuSans-38" x="95.410156"/>
      </g>
     </g>
    </g>
    <g id="xtick_6">
     <g id="line2d_11">
      <path d="M 25.951562 367.399219 
L 25.951562 21.799219 
" clip-path="url(#p77d1bd1bdd)" style="fill: none; stroke-dasharray: 0.925,0.4; stroke-dashoffset: 0; stroke: #b0b0b0; stroke-width: 0.25"/>
     </g>
     <g id="line2d_12">
      <g>
       <use xlink:href="#mbb4d158a17" x="25.951562" y="367.399219" style="stroke: #000000; stroke-width: 0.8"/>
      </g>
     </g>
     <g id="text_6">
      <!-- 1.0 -->
      <g transform="translate(18 381.997656) scale(0.1 -0.1)">
       <defs>
        <path id="DejaVuSans-31" d="M 794 531 
L 1825 531 
L 1825 4091 
L 703 3866 
L 703 4441 
L 1819 4666 
L 2450 4666 
L 2450 531 
L 3481 531 
L 3481 0 
L 794 0 
L 794 531 
z
" transform="scale(0.015625)"/>
       </defs>
       <use xlink:href="#DejaVuSans-31"/>
       <use xlink:href="#DejaVuSans-2e" x="63.623047"/>
       <use xlink:href="#DejaVuSans-30" x="95.410156"/>
      </g>
     </g>
    </g>
   </g>
   <g id="matplotlib.axis_2">
    <g id="ytick_1">
     <g id="line2d_13">
      <path d="M 25.951562 367.399219 
L 141.151562 367.399219 
" clip-path="url(#p77d1bd1bdd)" style="fill: none; stroke-dasharray: 0.925,0.4; stroke-dashoffset: 0; stroke: #b0b0b0; stroke-width: 0.25"/>
     </g>
     <g id="line2d_14">
      <defs>
       <path id="me4a97bfbab" d="M 0 0 
L 3.5 0 
" style="stroke: #000000; stroke-width: 0.8"/>
      </defs>
      <g>
       <use xlink:href="#me4a97bfbab" x="141.151562" y="367.399219" style="stroke: #000000; stroke-width: 0.8"/>
      </g>
     </g>
     <g id="text_7">
      <!-- −6 -->
      <g transform="translate(148.151562 371.198438) scale(0.1 -0.1)">
       <defs>
        <path id="DejaVuSans-2212" d="M 678 2272 
L 4684 2272 
L 4684 1741 
L 678 1741 
L 678 2272 
z
" transform="scale(0.015625)"/>
       </defs>
       <use xlink:href="#DejaVuSans-2212"/>
       <use xlink:href="#DejaVuSans-36" x="83.789062"/>
      </g>
     </g>
    </g>
    <g id="ytick_2">
     <g id="line2d_15">
      <path d="M 25.951562 309.799219 
L 141.151562 309.799219 
" clip-path="url(#p77d1bd1bdd)" style="fill: none; stroke-dasharray: 0.925,0.4; stroke-dashoffset: 0; stroke: #b0b0b0; stroke-width: 0.25"/>
     </g>
     <g id="line2d_16">
      <g>
       <use xlink:href="#me4a97bfbab" x="141.151562" y="309.799219" style="stroke: #000000; stroke-width: 0.8"/>
      </g>
     </g>
     <g id="text_8">
      <!-- −4 -->
      <g transform="translate(148.151562 313.598437) scale(0.1 -0.1)">
       <use xlink:href="#DejaVuSans-2212"/>
       <use xlink:href="#DejaVuSans-34" x="83.789062"/>
      </g>
     </g>
    </g>
    <g id="ytick_3">
     <g id="line2d_17">
      <path d="M 25.951562 252.199219 
L 141.151562 252.199219 
" clip-path="url(#p77d1bd1bdd)" style="fill: none; stroke-dasharray: 0.925,0.4; stroke-dashoffset: 0; stroke: #b0b0b0; stroke-width: 0.25"/>
     </g>
     <g id="line2d_18">
      <g>
       <use xlink:href="#me4a97bfbab" x="141.151562" y="252.199219" style="stroke: #000000; stroke-width: 0.8"/>
      </g>
     </g>
     <g id="text_9">
      <!-- −2 -->
      <g transform="translate(148.151562 255.998437) scale(0.1 -0.1)">
       <use xlink:href="#DejaVuSans-2212"/>
       <use xlink:href="#DejaVuSans-32" x="83.789062"/>
      </g>
     </g>
    </g>
    <g id="ytick_4">
     <g id="line2d_19">
      <path d="M 25.951562 194.599219 
L 141.151562 194.599219 
" clip-path="url(#p77d1bd1bdd)" style="fill: none; stroke-dasharray: 0.925,0.4; stroke-dashoffset: 0; stroke: #b0b0b0; stroke-width: 0.25"/>
     </g>
     <g id="line2d_20">
      <g>
       <use xlink:href="#me4a97bfbab" x="141.151562" y="194.599219" style="stroke: #000000; stroke-width: 0.8"/>
      </g>
     </g>
     <g id="text_10">
      <!-- 0 -->
      <g transform="translate(148.151562 198.398438) scale(0.1 -0.1)">
       <use xlink:href="#DejaVuSans-30"/>
      </g>
     </g>
    </g>
    <g id="ytick_5">
     <g id="line2d_21">
      <path d="M 25.951562 136.999219 
L 141.151562 136.999219 
" clip-path="url(#p77d1bd1bdd)" style="fill: none; stroke-dasharray: 0.925,0.4; stroke-dashoffset: 0; stroke: #b0b0b0; stroke-width: 0.25"/>
     </g>
     <g id="line2d_22">
      <g>
       <use xlink:href="#me4a97bfbab" x="141.151562" y="136.999219" style="stroke: #000000; stroke-width: 0.8"/>
      </g>
     </g>
     <g id="text_11">
      <!-- 2 -->
      <g transform="translate(148.151562 140.798438) scale(0.1 -0.1)">
       <use xlink:href="#DejaVuSans-32"/>
      </g>
     </g>
    </g>
    <g id="ytick_6">
     <g id="line2d_23">
      <path d="M 25.951562 79.399219 
L 141.151562 79.399219 
" clip-path="url(#p77d1bd1bdd)" style="fill: none; stroke-dasharray: 0.925,0.4; stroke-dashoffset: 0; stroke: #b0b0b0; stroke-width: 0.25"/>
     </g>
     <g id="line2d_24">
      <g>
       <use xlink:href="#me4a97bfbab" x="141.151562" y="79.399219" style="stroke: #000000; stroke-width: 0.8"/>
      </g>
     </g>
     <g id="text_12">
      <!-- 4 -->
      <g transform="translate(148.151562 83.198438) scale(0.1 -0.1)">
       <use xlink:href="#DejaVuSans-34"/>
      </g>
     </g>
    </g>
    <g id="ytick_7">
     <g id="line2d_25">
      <path d="M 25.951562 21.799219 
L 141.151562 21.799219 
" clip-path="url(#p77d1bd1bdd)" style="fill: none; stroke-dasharray: 0.925,0.4; stroke-dashoffset: 0; stroke: #b0b0b0; stroke-width: 0.25"/>
     </g>
     <g id="line2d_26">
      <g>
       <use xlink:href="#me4a97bfbab" x="141.151562" y="21.799219" style="stroke: #000000; stroke-width: 0.8"/>
      </g>
     </g>
     <g id="text_13">
      <!-- 6 -->
      <g transform="translate(148.151562 25.598437) scale(0.1 -0.1)">
       <use xlink:href="#DejaVuSans-36"/>
      </g>
     </g>
    </g>
   </g>
   <g id="line2d_27">
    <path d="M 140.950302 403.077344 
L 140.574522 398.546527 
L 140.561065 394.31964 
L 140.789521 384.809144 
L 141.126467 380.582256 
L 141.062428 378.468813 
L 140.769759 376.355369 
L 140.080823 372.128482 
L 140.038088 370.015038 
L 140.220257 365.788151 
L 140.102186 364.731429 
L 139.853479 363.674707 
L 138.974781 361.561264 
L 137.35067 358.391098 
L 137.000512 357.334377 
L 136.852884 356.277655 
L 136.940083 355.220933 
L 137.260893 354.164211 
L 137.778153 353.107489 
L 139.713588 349.937324 
L 140.165546 348.880602 
L 140.386527 347.82388 
L 140.34156 346.767159 
L 140.038011 345.710437 
L 139.525014 344.653715 
L 137.634647 341.48355 
L 137.209813 340.426828 
L 136.994713 339.370106 
L 136.991198 338.313384 
L 137.389594 336.199941 
L 137.587496 335.143219 
L 137.625848 334.086497 
L 137.403469 333.029775 
L 136.86055 331.973053 
L 135.994892 330.916332 
L 133.603829 328.802888 
L 132.366087 327.746166 
L 131.339774 326.689444 
L 130.697278 325.632723 
L 130.568271 324.576001 
L 131.014132 323.519279 
L 132.012414 322.462557 
L 133.454691 321.405835 
L 138.420193 318.23567 
L 139.517228 317.178948 
L 140.031611 316.122226 
L 139.898511 315.065504 
L 139.156159 314.008783 
L 137.942192 312.952061 
L 135.009016 310.838617 
L 133.811298 309.781895 
L 133.096815 308.725174 
L 132.999903 307.668452 
L 133.546929 306.61173 
L 134.648968 305.555008 
L 139.053815 302.384843 
L 139.969518 301.328121 
L 140.230745 300.271399 
L 139.750374 299.214677 
L 138.569472 298.157956 
L 136.854762 297.101234 
L 132.952146 294.98779 
L 131.41737 293.931068 
L 130.542686 292.874347 
L 130.496623 291.817625 
L 131.309844 290.760903 
L 132.864796 289.704181 
L 139.059238 286.534016 
L 140.423946 285.477294 
L 140.931863 284.420572 
L 140.456058 283.36385 
L 139.034309 282.307129 
L 136.867482 281.250407 
L 131.712571 279.136963 
L 129.558227 278.080241 
L 128.182563 277.02352 
L 127.811556 275.966798 
L 128.496082 274.910076 
L 130.095688 273.853354 
L 136.658484 270.683189 
L 137.845463 269.626467 
L 137.841406 268.569745 
L 136.450889 267.513023 
L 133.69195 266.456301 
L 129.801749 265.39958 
L 116.153842 262.229414 
L 112.838669 261.172692 
L 110.923675 260.115971 
L 110.619676 259.059249 
L 111.904875 258.002527 
L 114.529891 256.945805 
L 121.946394 254.832362 
L 125.618051 253.77564 
L 128.572719 252.718918 
L 130.457331 251.662196 
L 131.120384 250.605474 
L 130.628366 249.548753 
L 129.243049 248.492031 
L 125.442931 246.378587 
L 123.894852 245.321865 
L 123.005649 244.265144 
L 122.869241 243.208422 
L 123.356441 242.1517 
L 124.125567 241.094978 
L 124.673854 240.038256 
L 124.42203 238.981535 
L 122.818462 237.924813 
L 119.445446 236.868091 
L 114.109385 235.811369 
L 106.898761 234.754647 
L 88.6591 232.641204 
L 70.4883 230.52776 
L 63.643879 229.471038 
L 59.28652 228.414316 
L 57.853064 227.357595 
L 59.45384 226.300873 
L 63.8602 225.244151 
L 70.541729 224.187429 
L 87.613743 222.073986 
L 104.060487 219.960542 
L 110.409818 218.90382 
L 115.09622 217.847098 
L 118.140177 216.790377 
L 119.783001 215.733655 
L 120.406547 214.676933 
L 120.432016 213.620211 
L 119.690268 210.450046 
L 119.175487 209.393324 
L 118.039282 208.336602 
L 115.797125 207.27988 
L 111.967384 206.223159 
L 106.183152 205.166437 
L 98.2927 204.109715 
L 88.429873 203.052993 
L 64.857977 200.93955 
L 42.005605 198.826106 
L 33.401097 197.769384 
L 27.862945 196.712662 
L 25.951562 195.655941 
L 27.862945 194.599219 
L 33.401097 193.542497 
L 42.005605 192.485775 
L 52.829929 191.429053 
L 88.429873 188.258888 
L 98.2927 187.202166 
L 106.183152 186.145444 
L 111.967384 185.088723 
L 115.797125 184.032001 
L 118.039282 182.975279 
L 119.175487 181.918557 
L 119.690268 180.861835 
L 120.432016 177.69167 
L 120.406547 176.634948 
L 119.783001 175.578226 
L 118.140177 174.521504 
L 115.09622 173.464783 
L 110.409818 172.408061 
L 104.060487 171.351339 
L 96.292559 170.294617 
L 70.541729 167.124452 
L 63.8602 166.06773 
L 59.45384 165.011008 
L 57.853064 163.954286 
L 59.28652 162.897565 
L 63.643879 161.840843 
L 70.4883 160.784121 
L 88.6591 158.670677 
L 106.898761 156.557234 
L 114.109385 155.500512 
L 119.445446 154.44379 
L 122.818462 153.387068 
L 124.42203 152.330347 
L 124.673854 151.273625 
L 124.125567 150.216903 
L 123.356441 149.160181 
L 122.869241 148.103459 
L 123.005649 147.046738 
L 123.894852 145.990016 
L 125.442931 144.933294 
L 129.243049 142.81985 
L 130.628366 141.763129 
L 131.120384 140.706407 
L 130.457331 139.649685 
L 128.572719 138.592963 
L 125.618051 137.536241 
L 114.529891 134.366076 
L 111.904875 133.309354 
L 110.619676 132.252632 
L 110.923675 131.19591 
L 112.838669 130.139189 
L 116.153842 129.082467 
L 125.206286 126.969023 
L 129.801749 125.912301 
L 133.69195 124.85558 
L 136.450889 123.798858 
L 137.841406 122.742136 
L 137.845463 121.685414 
L 136.658484 120.628692 
L 134.649544 119.571971 
L 130.095688 117.458527 
L 128.496082 116.401805 
L 127.811556 115.345083 
L 128.182563 114.288362 
L 129.558227 113.23164 
L 131.712571 112.174918 
L 136.867482 110.061474 
L 139.034309 109.004753 
L 140.456058 107.948031 
L 140.931863 106.891309 
L 140.423946 105.834587 
L 139.059238 104.777865 
L 137.10316 103.721144 
L 132.864796 101.6077 
L 131.309844 100.550978 
L 130.496623 99.494256 
L 130.542686 98.437535 
L 131.41737 97.380813 
L 132.952146 96.324091 
L 138.569472 93.153926 
L 139.750374 92.097204 
L 140.230745 91.040482 
L 139.969518 89.98376 
L 139.053815 88.927038 
L 137.679585 87.870316 
L 134.648968 85.756873 
L 133.546929 84.700151 
L 132.999903 83.643429 
L 133.096815 82.586707 
L 133.811298 81.529986 
L 135.009016 80.473264 
L 137.942192 78.35982 
L 139.156159 77.303098 
L 139.898511 76.246377 
L 140.031611 75.189655 
L 139.517228 74.132933 
L 138.420193 73.076211 
L 136.895102 72.019489 
L 133.454691 69.906046 
L 132.012414 68.849324 
L 131.014132 67.792602 
L 130.568271 66.73588 
L 130.697278 65.679159 
L 131.339774 64.622437 
L 132.366087 63.565715 
L 135.994892 60.39555 
L 136.86055 59.338828 
L 137.403469 58.282106 
L 137.625848 57.225384 
L 137.587496 56.168662 
L 136.991198 52.998497 
L 136.994713 51.941775 
L 137.209813 50.885053 
L 137.634647 49.828332 
L 138.885376 47.714888 
L 140.038011 45.601444 
L 140.34156 44.544723 
L 140.386527 43.488001 
L 140.165546 42.431279 
L 139.713588 41.374557 
L 137.260893 37.14767 
L 136.940083 36.090948 
L 136.852884 35.034226 
L 137.000512 33.977504 
L 137.35067 32.920783 
L 138.411457 30.807339 
L 139.470604 28.693895 
L 139.853479 27.637174 
L 140.102186 26.580452 
L 140.232265 24.467008 
L 140.026767 20.240121 
L 140.200568 18.126677 
L 141.124642 11.786347 
L 141.076904 9.672903 
L 140.589624 2.27585 
L 140.583567 -1 
L 140.583567 -1 
" clip-path="url(#p77d1bd1bdd)" style="fill: none; stroke: #000000; stroke-width: 2; stroke-linecap: square"/>
   </g>
   <g id="patch_3">
    <path d="M 141.151562 367.399219 
L 141.151562 21.799219 
" style="fill: none; stroke: #000000; stroke-width: 0.8; stroke-linejoin: miter; stroke-linecap: square"/>
   </g>
   <g id="patch_4">
    <path d="M 25.951562 367.399219 
L 141.151562 367.399219 
" style="fill: none; stroke: #000000; stroke-width: 0.8; stroke-linejoin: miter; stroke-linecap: square"/>
   </g>
  </g>
 </g>
 <defs>
  <clipPath id="p77d1bd1bdd">
   <rect x="25.951562" y="21.799219" width="115.2" height="345.6"/>
  </clipPath>
 </defs>
</svg>
