<?xml version="1.0" encoding="utf-8" standalone="no"?>
<!DOCTYPE svg PUBLIC "-//W3C//DTD SVG 1.1//EN"
  "http://www.w3.org/Graphics/SVG/1.1/DTD/svg11.dtd">
<svg xmlns:xlink="http://www.w3.org/1999/xlink" width="180.89375pt" height="402.077344pt" viewBox="0 0 180.89375 402.077344" xmlns="http://www.w3.org/2000/svg" version="1.1">
 <metadata>
  <rdf:RDF xmlns:dc="http://purl.org/dc/elements/1.1/" xmlns:cc="http://creativecommons.org/ns#" xmlns:rdf="http://www.w3.org/1999/02/22-rdf-syntax-ns#">
   <cc:Work>
    <dc:type rdf:resource="http://purl.org/dc/dcmitype/StillImage"/>
    <dc:date>2025-02-21T18:19:48.968320</dc:date>
    <dc:format>image/svg+xml</dc:format>
    <dc:creator>
     <cc:Agent>
      <dc:title>Matplotlib v3.8.4, https://matplotlib.org/</dc:title>
     </cc:Agent>
    </dc:creator>
   </cc:Work>
  </rdf:RDF>
 </metadata>
 <defs>
  <style type="text/css">*{stroke-linejoin: round; stroke-linecap: butt}</style>
 </defs>
 <g id="figure_1">
  <g id="patch_1">
   <path d="M 0 402.077344 
L 180.89375 402.077344 
L 180.89375 0 
L 0 0 
L 0 402.077344 
z
" style="fill: none"/>
  </g>
  <g id="axes_1">
   <g id="patch_2">
    <path d="M 25.951562 367.399219 
L 141.151562 367.399219 
L 141.151562 21.799219 
L 25.951562 21.799219 
L 25.951562 367.399219 
z
" style="fill: none"/>
   </g>
   <g id="matplotlib.axis_1">
    <g id="xtick_1">
     <g id="line2d_1">
      <path d="M 141.151562 367.399219 
L 141.151562 21.799219 
" clip-path="url(#p7a72cf5c59)" style="fill: none; stroke-dasharray: 0.925,0.4; stroke-dashoffset: 0; stroke: #b0b0b0; stroke-width: 0.25"/>
     </g>
     <g id="line2d_2">
      <defs>
       <path id="mb019956680" d="M 0 0 
L 0 3.5 
" style="stroke: #000000; stroke-width: 0.8"/>
      </defs>
      <g>
       <use xlink:href="#mb019956680" x="141.151562" y="367.399219" style="stroke: #000000; stroke-width: 0.8"/>
      </g>
     </g>
     <g id="text_1">
      <!-- 0.0 -->
      <g transform="translate(133.2 381.997656) scale(0.1 -0.1)">
       <defs>
        <path id="DejaVuSans-30" d="M 2034 4250 
Q 1547 4250 1301 3770 
Q 1056 3291 1056 2328 
Q 1056 1369 1301 889 
Q 1547 409 2034 409 
Q 2525 409 2770 889 
Q 3016 1369 3016 2328 
Q 3016 3291 2770 3770 
Q 2525 4250 2034 4250 
z
M 2034 4750 
Q 2819 4750 3233 4129 
Q 3647 3509 3647 2328 
Q 3647 1150 3233 529 
Q 2819 -91 2034 -91 
Q 1250 -91 836 529 
Q 422 1150 422 2328 
Q 422 3509 836 4129 
Q 1250 4750 2034 4750 
z
" transform="scale(0.015625)"/>
        <path id="DejaVuSans-2e" d="M 684 794 
L 1344 794 
L 1344 0 
L 684 0 
L 684 794 
z
" transform="scale(0.015625)"/>
       </defs>
       <use xlink:href="#DejaVuSans-30"/>
       <use xlink:href="#DejaVuSans-2e" x="63.623047"/>
       <use xlink:href="#DejaVuSans-30" x="95.410156"/>
      </g>
     </g>
    </g>
    <g id="xtick_2">
     <g id="line2d_3">
      <path d="M 118.111562 367.399219 
L 118.111562 21.799219 
" clip-path="url(#p7a72cf5c59)" style="fill: none; stroke-dasharray: 0.925,0.4; stroke-dashoffset: 0; stroke: #b0b0b0; stroke-width: 0.25"/>
     </g>
     <g id="line2d_4">
      <g>
       <use xlink:href="#mb019956680" x="118.111562" y="367.399219" style="stroke: #000000; stroke-width: 0.8"/>
      </g>
     </g>
     <g id="text_2">
      <!-- 0.2 -->
      <g transform="translate(110.16 381.997656) scale(0.1 -0.1)">
       <defs>
        <path id="DejaVuSans-32" d="M 1228 531 
L 3431 531 
L 3431 0 
L 469 0 
L 469 531 
Q 828 903 1448 1529 
Q 2069 2156 2228 2338 
Q 2531 2678 2651 2914 
Q 2772 3150 2772 3378 
Q 2772 3750 2511 3984 
Q 2250 4219 1831 4219 
Q 1534 4219 1204 4116 
Q 875 4013 500 3803 
L 500 4441 
Q 881 4594 1212 4672 
Q 1544 4750 1819 4750 
Q 2544 4750 2975 4387 
Q 3406 4025 3406 3419 
Q 3406 3131 3298 2873 
Q 3191 2616 2906 2266 
Q 2828 2175 2409 1742 
Q 1991 1309 1228 531 
z
" transform="scale(0.015625)"/>
       </defs>
       <use xlink:href="#DejaVuSans-30"/>
       <use xlink:href="#DejaVuSans-2e" x="63.623047"/>
       <use xlink:href="#DejaVuSans-32" x="95.410156"/>
      </g>
     </g>
    </g>
    <g id="xtick_3">
     <g id="line2d_5">
      <path d="M 95.071562 367.399219 
L 95.071562 21.799219 
" clip-path="url(#p7a72cf5c59)" style="fill: none; stroke-dasharray: 0.925,0.4; stroke-dashoffset: 0; stroke: #b0b0b0; stroke-width: 0.25"/>
     </g>
     <g id="line2d_6">
      <g>
       <use xlink:href="#mb019956680" x="95.071562" y="367.399219" style="stroke: #000000; stroke-width: 0.8"/>
      </g>
     </g>
     <g id="text_3">
      <!-- 0.4 -->
      <g transform="translate(87.12 381.997656) scale(0.1 -0.1)">
       <defs>
        <path id="DejaVuSans-34" d="M 2419 4116 
L 825 1625 
L 2419 1625 
L 2419 4116 
z
M 2253 4666 
L 3047 4666 
L 3047 1625 
L 3713 1625 
L 3713 1100 
L 3047 1100 
L 3047 0 
L 2419 0 
L 2419 1100 
L 313 1100 
L 313 1709 
L 2253 4666 
z
" transform="scale(0.015625)"/>
       </defs>
       <use xlink:href="#DejaVuSans-30"/>
       <use xlink:href="#DejaVuSans-2e" x="63.623047"/>
       <use xlink:href="#DejaVuSans-34" x="95.410156"/>
      </g>
     </g>
    </g>
    <g id="xtick_4">
     <g id="line2d_7">
      <path d="M 72.031562 367.399219 
L 72.031562 21.799219 
" clip-path="url(#p7a72cf5c59)" style="fill: none; stroke-dasharray: 0.925,0.4; stroke-dashoffset: 0; stroke: #b0b0b0; stroke-width: 0.25"/>
     </g>
     <g id="line2d_8">
      <g>
       <use xlink:href="#mb019956680" x="72.031562" y="367.399219" style="stroke: #000000; stroke-width: 0.8"/>
      </g>
     </g>
     <g id="text_4">
      <!-- 0.6 -->
      <g transform="translate(64.08 381.997656) scale(0.1 -0.1)">
       <defs>
        <path id="DejaVuSans-36" d="M 2113 2584 
Q 1688 2584 1439 2293 
Q 1191 2003 1191 1497 
Q 1191 994 1439 701 
Q 1688 409 2113 409 
Q 2538 409 2786 701 
Q 3034 994 3034 1497 
Q 3034 2003 2786 2293 
Q 2538 2584 2113 2584 
z
M 3366 4563 
L 3366 3988 
Q 3128 4100 2886 4159 
Q 2644 4219 2406 4219 
Q 1781 4219 1451 3797 
Q 1122 3375 1075 2522 
Q 1259 2794 1537 2939 
Q 1816 3084 2150 3084 
Q 2853 3084 3261 2657 
Q 3669 2231 3669 1497 
Q 3669 778 3244 343 
Q 2819 -91 2113 -91 
Q 1303 -91 875 529 
Q 447 1150 447 2328 
Q 447 3434 972 4092 
Q 1497 4750 2381 4750 
Q 2619 4750 2861 4703 
Q 3103 4656 3366 4563 
z
" transform="scale(0.015625)"/>
       </defs>
       <use xlink:href="#DejaVuSans-30"/>
       <use xlink:href="#DejaVuSans-2e" x="63.623047"/>
       <use xlink:href="#DejaVuSans-36" x="95.410156"/>
      </g>
     </g>
    </g>
    <g id="xtick_5">
     <g id="line2d_9">
      <path d="M 48.991562 367.399219 
L 48.991562 21.799219 
" clip-path="url(#p7a72cf5c59)" style="fill: none; stroke-dasharray: 0.925,0.4; stroke-dashoffset: 0; stroke: #b0b0b0; stroke-width: 0.25"/>
     </g>
     <g id="line2d_10">
      <g>
       <use xlink:href="#mb019956680" x="48.991562" y="367.399219" style="stroke: #000000; stroke-width: 0.8"/>
      </g>
     </g>
     <g id="text_5">
      <!-- 0.8 -->
      <g transform="translate(41.04 381.997656) scale(0.1 -0.1)">
       <defs>
        <path id="DejaVuSans-38" d="M 2034 2216 
Q 1584 2216 1326 1975 
Q 1069 1734 1069 1313 
Q 1069 891 1326 650 
Q 1584 409 2034 409 
Q 2484 409 2743 651 
Q 3003 894 3003 1313 
Q 3003 1734 2745 1975 
Q 2488 2216 2034 2216 
z
M 1403 2484 
Q 997 2584 770 2862 
Q 544 3141 544 3541 
Q 544 4100 942 4425 
Q 1341 4750 2034 4750 
Q 2731 4750 3128 4425 
Q 3525 4100 3525 3541 
Q 3525 3141 3298 2862 
Q 3072 2584 2669 2484 
Q 3125 2378 3379 2068 
Q 3634 1759 3634 1313 
Q 3634 634 3220 271 
Q 2806 -91 2034 -91 
Q 1263 -91 848 271 
Q 434 634 434 1313 
Q 434 1759 690 2068 
Q 947 2378 1403 2484 
z
M 1172 3481 
Q 1172 3119 1398 2916 
Q 1625 2713 2034 2713 
Q 2441 2713 2670 2916 
Q 2900 3119 2900 3481 
Q 2900 3844 2670 4047 
Q 2441 4250 2034 4250 
Q 1625 4250 1398 4047 
Q 1172 3844 1172 3481 
z
" transform="scale(0.015625)"/>
       </defs>
       <use xlink:href="#DejaVuSans-30"/>
       <use xlink:href="#DejaVuSans-2e" x="63.623047"/>
       <use xlink:href="#DejaVuSans-38" x="95.410156"/>
      </g>
     </g>
    </g>
    <g id="xtick_6">
     <g id="line2d_11">
      <path d="M 25.951562 367.399219 
L 25.951562 21.799219 
" clip-path="url(#p7a72cf5c59)" style="fill: none; stroke-dasharray: 0.925,0.4; stroke-dashoffset: 0; stroke: #b0b0b0; stroke-width: 0.25"/>
     </g>
     <g id="line2d_12">
      <g>
       <use xlink:href="#mb019956680" x="25.951562" y="367.399219" style="stroke: #000000; stroke-width: 0.8"/>
      </g>
     </g>
     <g id="text_6">
      <!-- 1.0 -->
      <g transform="translate(18 381.997656) scale(0.1 -0.1)">
       <defs>
        <path id="DejaVuSans-31" d="M 794 531 
L 1825 531 
L 1825 4091 
L 703 3866 
L 703 4441 
L 1819 4666 
L 2450 4666 
L 2450 531 
L 3481 531 
L 3481 0 
L 794 0 
L 794 531 
z
" transform="scale(0.015625)"/>
       </defs>
       <use xlink:href="#DejaVuSans-31"/>
       <use xlink:href="#DejaVuSans-2e" x="63.623047"/>
       <use xlink:href="#DejaVuSans-30" x="95.410156"/>
      </g>
     </g>
    </g>
   </g>
   <g id="matplotlib.axis_2">
    <g id="ytick_1">
     <g id="line2d_13">
      <path d="M 25.951562 367.399219 
L 141.151562 367.399219 
" clip-path="url(#p7a72cf5c59)" style="fill: none; stroke-dasharray: 0.925,0.4; stroke-dashoffset: 0; stroke: #b0b0b0; stroke-width: 0.25"/>
     </g>
     <g id="line2d_14">
      <defs>
       <path id="m1ec8efa328" d="M 0 0 
L 3.5 0 
" style="stroke: #000000; stroke-width: 0.8"/>
      </defs>
      <g>
       <use xlink:href="#m1ec8efa328" x="141.151562" y="367.399219" style="stroke: #000000; stroke-width: 0.8"/>
      </g>
     </g>
     <g id="text_7">
      <!-- −6 -->
      <g transform="translate(148.151562 371.198438) scale(0.1 -0.1)">
       <defs>
        <path id="DejaVuSans-2212" d="M 678 2272 
L 4684 2272 
L 4684 1741 
L 678 1741 
L 678 2272 
z
" transform="scale(0.015625)"/>
       </defs>
       <use xlink:href="#DejaVuSans-2212"/>
       <use xlink:href="#DejaVuSans-36" x="83.789062"/>
      </g>
     </g>
    </g>
    <g id="ytick_2">
     <g id="line2d_15">
      <path d="M 25.951562 309.799219 
L 141.151562 309.799219 
" clip-path="url(#p7a72cf5c59)" style="fill: none; stroke-dasharray: 0.925,0.4; stroke-dashoffset: 0; stroke: #b0b0b0; stroke-width: 0.25"/>
     </g>
     <g id="line2d_16">
      <g>
       <use xlink:href="#m1ec8efa328" x="141.151562" y="309.799219" style="stroke: #000000; stroke-width: 0.8"/>
      </g>
     </g>
     <g id="text_8">
      <!-- −4 -->
      <g transform="translate(148.151562 313.598437) scale(0.1 -0.1)">
       <use xlink:href="#DejaVuSans-2212"/>
       <use xlink:href="#DejaVuSans-34" x="83.789062"/>
      </g>
     </g>
    </g>
    <g id="ytick_3">
     <g id="line2d_17">
      <path d="M 25.951562 252.199219 
L 141.151562 252.199219 
" clip-path="url(#p7a72cf5c59)" style="fill: none; stroke-dasharray: 0.925,0.4; stroke-dashoffset: 0; stroke: #b0b0b0; stroke-width: 0.25"/>
     </g>
     <g id="line2d_18">
      <g>
       <use xlink:href="#m1ec8efa328" x="141.151562" y="252.199219" style="stroke: #000000; stroke-width: 0.8"/>
      </g>
     </g>
     <g id="text_9">
      <!-- −2 -->
      <g transform="translate(148.151562 255.998437) scale(0.1 -0.1)">
       <use xlink:href="#DejaVuSans-2212"/>
       <use xlink:href="#DejaVuSans-32" x="83.789062"/>
      </g>
     </g>
    </g>
    <g id="ytick_4">
     <g id="line2d_19">
      <path d="M 25.951562 194.599219 
L 141.151562 194.599219 
" clip-path="url(#p7a72cf5c59)" style="fill: none; stroke-dasharray: 0.925,0.4; stroke-dashoffset: 0; stroke: #b0b0b0; stroke-width: 0.25"/>
     </g>
     <g id="line2d_20">
      <g>
       <use xlink:href="#m1ec8efa328" x="141.151562" y="194.599219" style="stroke: #000000; stroke-width: 0.8"/>
      </g>
     </g>
     <g id="text_10">
      <!-- 0 -->
      <g transform="translate(148.151562 198.398438) scale(0.1 -0.1)">
       <use xlink:href="#DejaVuSans-30"/>
      </g>
     </g>
    </g>
    <g id="ytick_5">
     <g id="line2d_21">
      <path d="M 25.951562 136.999219 
L 141.151562 136.999219 
" clip-path="url(#p7a72cf5c59)" style="fill: none; stroke-dasharray: 0.925,0.4; stroke-dashoffset: 0; stroke: #b0b0b0; stroke-width: 0.25"/>
     </g>
     <g id="line2d_22">
      <g>
       <use xlink:href="#m1ec8efa328" x="141.151562" y="136.999219" style="stroke: #000000; stroke-width: 0.8"/>
      </g>
     </g>
     <g id="text_11">
      <!-- 2 -->
      <g transform="translate(148.151562 140.798438) scale(0.1 -0.1)">
       <use xlink:href="#DejaVuSans-32"/>
      </g>
     </g>
    </g>
    <g id="ytick_6">
     <g id="line2d_23">
      <path d="M 25.951562 79.399219 
L 141.151562 79.399219 
" clip-path="url(#p7a72cf5c59)" style="fill: none; stroke-dasharray: 0.925,0.4; stroke-dashoffset: 0; stroke: #b0b0b0; stroke-width: 0.25"/>
     </g>
     <g id="line2d_24">
      <g>
       <use xlink:href="#m1ec8efa328" x="141.151562" y="79.399219" style="stroke: #000000; stroke-width: 0.8"/>
      </g>
     </g>
     <g id="text_12">
      <!-- 4 -->
      <g transform="translate(148.151562 83.198438) scale(0.1 -0.1)">
       <use xlink:href="#DejaVuSans-34"/>
      </g>
     </g>
    </g>
    <g id="ytick_7">
     <g id="line2d_25">
      <path d="M 25.951562 21.799219 
L 141.151562 21.799219 
" clip-path="url(#p7a72cf5c59)" style="fill: none; stroke-dasharray: 0.925,0.4; stroke-dashoffset: 0; stroke: #b0b0b0; stroke-width: 0.25"/>
     </g>
     <g id="line2d_26">
      <g>
       <use xlink:href="#m1ec8efa328" x="141.151562" y="21.799219" style="stroke: #000000; stroke-width: 0.8"/>
      </g>
     </g>
     <g id="text_13">
      <!-- 6 -->
      <g transform="translate(148.151562 25.598437) scale(0.1 -0.1)">
       <use xlink:href="#DejaVuSans-36"/>
      </g>
     </g>
    </g>
   </g>
   <g id="line2d_27">
    <path d="M 141.10773 403.077344 
L 141.099207 398.546527 
L 140.910196 392.206196 
L 141.087541 384.809144 
L 140.564745 378.468813 
L 140.727009 376.355369 
L 141.121648 373.185204 
L 141.065107 371.07176 
L 140.589339 368.958316 
L 139.698048 365.788151 
L 139.593857 364.731429 
L 139.658148 363.674707 
L 139.887588 362.617986 
L 140.963944 359.44782 
L 141.133507 358.391098 
L 141.059774 357.334377 
L 140.707842 356.277655 
L 140.102608 355.220933 
L 137.860725 352.050768 
L 137.473084 350.994046 
L 137.469407 349.937324 
L 137.873547 348.880602 
L 138.615243 347.82388 
L 140.409672 345.710437 
L 140.999225 344.653715 
L 141.09938 343.596993 
L 140.595071 342.540271 
L 139.497828 341.48355 
L 134.694091 338.313384 
L 133.644057 337.256662 
L 133.347247 336.199941 
L 133.907323 335.143219 
L 135.238081 334.086497 
L 138.966465 331.973053 
L 140.465875 330.916332 
L 141.129414 329.85961 
L 140.675669 328.802888 
L 139.054573 327.746166 
L 136.480242 326.689444 
L 130.434214 324.576001 
L 128.200501 323.519279 
L 127.217321 322.462557 
L 127.750903 321.405835 
L 129.738315 320.349113 
L 132.775982 319.292392 
L 136.186706 318.23567 
L 139.155538 317.178948 
L 140.90785 316.122226 
L 140.891057 315.065504 
L 138.917733 314.008783 
L 135.233999 312.952061 
L 125.626937 310.838617 
L 121.659759 309.781895 
L 119.468873 308.725174 
L 119.579875 307.668452 
L 122.024563 306.61173 
L 126.3056 305.555008 
L 136.356363 303.441565 
L 139.743746 302.384843 
L 140.734804 301.328121 
L 138.921709 300.271399 
L 134.514673 299.214677 
L 115.766656 296.044512 
L 112.114166 294.98779 
L 111.484156 293.931068 
L 114.067619 292.874347 
L 119.331963 291.817625 
L 132.849371 289.704181 
L 137.927996 288.647459 
L 140.037868 287.590738 
L 138.479966 286.534016 
L 133.344353 285.477294 
L 125.516003 284.420572 
L 108.114962 282.307129 
L 102.078317 281.250407 
L 99.64413 280.193685 
L 101.30644 279.136963 
L 106.678901 278.080241 
L 130.72017 274.910076 
L 135.394998 273.853354 
L 136.203809 272.796632 
L 132.969258 271.73991 
L 126.423945 270.683189 
L 109.752861 268.569745 
L 103.42161 267.513023 
L 100.505256 266.456301 
L 101.669061 265.39958 
L 106.628641 264.342858 
L 129.515311 261.172692 
L 133.281318 260.115971 
L 132.567998 259.059249 
L 127.049876 258.002527 
L 117.422672 256.945805 
L 82.177516 253.77564 
L 75.435803 252.718918 
L 73.713751 251.662196 
L 77.190227 250.605474 
L 85.024644 249.548753 
L 116.13737 246.378587 
L 122.380519 245.321865 
L 124.464812 244.265144 
L 122.450775 243.208422 
L 117.304783 242.1517 
L 104.36143 240.038256 
L 100.138369 238.981535 
L 99.081014 237.924813 
L 101.434935 236.868091 
L 106.518697 235.811369 
L 118.547267 233.697926 
L 121.607432 232.641204 
L 120.512829 231.584482 
L 114.520445 230.52776 
L 103.881223 229.471038 
L 74.389133 227.357595 
L 59.94609 226.300873 
L 48.825478 225.244151 
L 42.813387 224.187429 
L 42.813695 223.130707 
L 48.680402 222.073986 
L 59.263556 221.017264 
L 98.897084 217.847098 
L 107.914804 216.790377 
L 112.803361 215.733655 
L 113.648272 214.676933 
L 111.371582 213.620211 
L 103.580798 211.506768 
L 101.157915 210.450046 
L 101.028115 209.393324 
L 103.229642 208.336602 
L 110.881713 206.223159 
L 113.198673 205.166437 
L 112.328378 204.109715 
L 107.178957 203.052993 
L 97.479388 201.996271 
L 83.91342 200.93955 
L 52.078112 198.826106 
L 38.406644 197.769384 
L 29.198889 196.712662 
L 25.951562 195.655941 
L 29.198889 194.599219 
L 38.406644 193.542497 
L 52.078112 192.485775 
L 83.91342 190.372332 
L 97.479388 189.31561 
L 107.178957 188.258888 
L 112.328378 187.202166 
L 113.198673 186.145444 
L 110.881713 185.088723 
L 103.229642 182.975279 
L 101.028115 181.918557 
L 101.157915 180.861835 
L 103.580798 179.805113 
L 111.371582 177.69167 
L 113.648272 176.634948 
L 112.803361 175.578226 
L 107.914804 174.521504 
L 98.897084 173.464783 
L 86.59231 172.408061 
L 59.263556 170.294617 
L 48.680402 169.237895 
L 42.813695 168.181174 
L 42.813387 167.124452 
L 48.825478 166.06773 
L 59.94609 165.011008 
L 103.881223 161.840843 
L 114.520445 160.784121 
L 120.512829 159.727399 
L 121.607432 158.670677 
L 118.547267 157.613956 
L 112.865655 156.557234 
L 106.518697 155.500512 
L 101.434935 154.44379 
L 99.081014 153.387068 
L 100.138369 152.330347 
L 104.36143 151.273625 
L 117.304783 149.160181 
L 122.450775 148.103459 
L 124.464812 147.046738 
L 122.380519 145.990016 
L 116.13737 144.933294 
L 106.630903 143.876572 
L 85.024644 141.763129 
L 77.190227 140.706407 
L 73.713751 139.649685 
L 75.435803 138.592963 
L 82.177516 137.536241 
L 92.766394 136.47952 
L 117.422672 134.366076 
L 127.049876 133.309354 
L 132.567998 132.252632 
L 133.281318 131.19591 
L 129.515311 130.139189 
L 122.523463 129.082467 
L 106.628641 126.969023 
L 101.669061 125.912301 
L 100.505256 124.85558 
L 103.42161 123.798858 
L 109.752861 122.742136 
L 126.423945 120.628692 
L 132.969258 119.571971 
L 136.203809 118.515249 
L 135.394998 117.458527 
L 130.72017 116.401805 
L 123.22117 115.345083 
L 106.678901 113.23164 
L 101.30644 112.174918 
L 99.64413 111.118196 
L 102.078317 110.061474 
L 108.114962 109.004753 
L 133.344353 105.834587 
L 138.479966 104.777865 
L 140.037868 103.721144 
L 137.927996 102.664422 
L 132.849371 101.6077 
L 119.331963 99.494256 
L 114.067619 98.437535 
L 111.484156 97.380813 
L 112.114166 96.324091 
L 115.766656 95.267369 
L 121.59798 94.210647 
L 134.514673 92.097204 
L 138.921709 91.040482 
L 140.734804 89.98376 
L 139.743746 88.927038 
L 136.356363 87.870316 
L 122.024563 84.700151 
L 119.579875 83.643429 
L 119.468873 82.586707 
L 121.659759 81.529986 
L 125.626937 80.473264 
L 135.233999 78.35982 
L 138.917733 77.303098 
L 140.891057 76.246377 
L 140.90785 75.189655 
L 139.155538 74.132933 
L 136.186706 73.076211 
L 129.738315 70.962768 
L 127.750903 69.906046 
L 127.217321 68.849324 
L 128.200501 67.792602 
L 130.434214 66.73588 
L 139.054573 63.565715 
L 140.675669 62.508993 
L 141.129414 61.452271 
L 140.465875 60.39555 
L 138.966465 59.338828 
L 135.238081 57.225384 
L 133.907323 56.168662 
L 133.347247 55.111941 
L 133.644057 54.055219 
L 134.694091 52.998497 
L 139.497828 49.828332 
L 140.595071 48.77161 
L 141.09938 47.714888 
L 140.999225 46.658166 
L 140.409672 45.601444 
L 137.873547 42.431279 
L 137.469407 41.374557 
L 137.473084 40.317835 
L 137.860725 39.261113 
L 138.530099 38.204392 
L 140.102608 36.090948 
L 140.707842 35.034226 
L 141.059774 33.977504 
L 141.133507 32.920783 
L 140.963944 31.864061 
L 139.658148 27.637174 
L 139.593857 26.580452 
L 139.698048 25.52373 
L 140.257448 23.410286 
L 140.873046 21.296843 
L 141.146139 19.183399 
L 141.017591 17.069956 
L 140.616883 13.89979 
L 140.578019 11.786347 
L 140.885476 8.616181 
L 141.133364 5.446016 
L 141.052201 2.27585 
L 140.90958 -1 
L 140.90958 -1 
" clip-path="url(#p7a72cf5c59)" style="fill: none; stroke: #000000; stroke-width: 2; stroke-linecap: square"/>
   </g>
   <g id="patch_3">
    <path d="M 141.151562 367.399219 
L 141.151562 21.799219 
" style="fill: none; stroke: #000000; stroke-width: 0.8; stroke-linejoin: miter; stroke-linecap: square"/>
   </g>
   <g id="patch_4">
    <path d="M 25.951562 367.399219 
L 141.151562 367.399219 
" style="fill: none; stroke: #000000; stroke-width: 0.8; stroke-linejoin: miter; stroke-linecap: square"/>
   </g>
  </g>
 </g>
 <defs>
  <clipPath id="p7a72cf5c59">
   <rect x="25.951562" y="21.799219" width="115.2" height="345.6"/>
  </clipPath>
 </defs>
</svg>
