<?xml version="1.0" encoding="utf-8" standalone="no"?>
<!DOCTYPE svg PUBLIC "-//W3C//DTD SVG 1.1//EN"
  "http://www.w3.org/Graphics/SVG/1.1/DTD/svg11.dtd">
<svg xmlns:xlink="http://www.w3.org/1999/xlink" width="180.89375pt" height="402.077344pt" viewBox="0 0 180.89375 402.077344" xmlns="http://www.w3.org/2000/svg" version="1.1">
 <metadata>
  <rdf:RDF xmlns:dc="http://purl.org/dc/elements/1.1/" xmlns:cc="http://creativecommons.org/ns#" xmlns:rdf="http://www.w3.org/1999/02/22-rdf-syntax-ns#">
   <cc:Work>
    <dc:type rdf:resource="http://purl.org/dc/dcmitype/StillImage"/>
    <dc:date>2025-02-21T18:19:49.035656</dc:date>
    <dc:format>image/svg+xml</dc:format>
    <dc:creator>
     <cc:Agent>
      <dc:title>Matplotlib v3.8.4, https://matplotlib.org/</dc:title>
     </cc:Agent>
    </dc:creator>
   </cc:Work>
  </rdf:RDF>
 </metadata>
 <defs>
  <style type="text/css">*{stroke-linejoin: round; stroke-linecap: butt}</style>
 </defs>
 <g id="figure_1">
  <g id="patch_1">
   <path d="M 0 402.077344 
L 180.89375 402.077344 
L 180.89375 0 
L 0 0 
L 0 402.077344 
z
" style="fill: none"/>
  </g>
  <g id="axes_1">
   <g id="patch_2">
    <path d="M 25.951562 367.399219 
L 141.151562 367.399219 
L 141.151562 21.799219 
L 25.951562 21.799219 
L 25.951562 367.399219 
z
" style="fill: none"/>
   </g>
   <g id="matplotlib.axis_1">
    <g id="xtick_1">
     <g id="line2d_1">
      <path d="M 141.151562 367.399219 
L 141.151562 21.799219 
" clip-path="url(#p73d77fda96)" style="fill: none; stroke-dasharray: 0.925,0.4; stroke-dashoffset: 0; stroke: #b0b0b0; stroke-width: 0.25"/>
     </g>
     <g id="line2d_2">
      <defs>
       <path id="mfc403a2696" d="M 0 0 
L 0 3.5 
" style="stroke: #000000; stroke-width: 0.8"/>
      </defs>
      <g>
       <use xlink:href="#mfc403a2696" x="141.151562" y="367.399219" style="stroke: #000000; stroke-width: 0.8"/>
      </g>
     </g>
     <g id="text_1">
      <!-- 0.0 -->
      <g transform="translate(133.2 381.997656) scale(0.1 -0.1)">
       <defs>
        <path id="DejaVuSans-30" d="M 2034 4250 
Q 1547 4250 1301 3770 
Q 1056 3291 1056 2328 
Q 1056 1369 1301 889 
Q 1547 409 2034 409 
Q 2525 409 2770 889 
Q 3016 1369 3016 2328 
Q 3016 3291 2770 3770 
Q 2525 4250 2034 4250 
z
M 2034 4750 
Q 2819 4750 3233 4129 
Q 3647 3509 3647 2328 
Q 3647 1150 3233 529 
Q 2819 -91 2034 -91 
Q 1250 -91 836 529 
Q 422 1150 422 2328 
Q 422 3509 836 4129 
Q 1250 4750 2034 4750 
z
" transform="scale(0.015625)"/>
        <path id="DejaVuSans-2e" d="M 684 794 
L 1344 794 
L 1344 0 
L 684 0 
L 684 794 
z
" transform="scale(0.015625)"/>
       </defs>
       <use xlink:href="#DejaVuSans-30"/>
       <use xlink:href="#DejaVuSans-2e" x="63.623047"/>
       <use xlink:href="#DejaVuSans-30" x="95.410156"/>
      </g>
     </g>
    </g>
    <g id="xtick_2">
     <g id="line2d_3">
      <path d="M 118.111562 367.399219 
L 118.111562 21.799219 
" clip-path="url(#p73d77fda96)" style="fill: none; stroke-dasharray: 0.925,0.4; stroke-dashoffset: 0; stroke: #b0b0b0; stroke-width: 0.25"/>
     </g>
     <g id="line2d_4">
      <g>
       <use xlink:href="#mfc403a2696" x="118.111562" y="367.399219" style="stroke: #000000; stroke-width: 0.8"/>
      </g>
     </g>
     <g id="text_2">
      <!-- 0.2 -->
      <g transform="translate(110.16 381.997656) scale(0.1 -0.1)">
       <defs>
        <path id="DejaVuSans-32" d="M 1228 531 
L 3431 531 
L 3431 0 
L 469 0 
L 469 531 
Q 828 903 1448 1529 
Q 2069 2156 2228 2338 
Q 2531 2678 2651 2914 
Q 2772 3150 2772 3378 
Q 2772 3750 2511 3984 
Q 2250 4219 1831 4219 
Q 1534 4219 1204 4116 
Q 875 4013 500 3803 
L 500 4441 
Q 881 4594 1212 4672 
Q 1544 4750 1819 4750 
Q 2544 4750 2975 4387 
Q 3406 4025 3406 3419 
Q 3406 3131 3298 2873 
Q 3191 2616 2906 2266 
Q 2828 2175 2409 1742 
Q 1991 1309 1228 531 
z
" transform="scale(0.015625)"/>
       </defs>
       <use xlink:href="#DejaVuSans-30"/>
       <use xlink:href="#DejaVuSans-2e" x="63.623047"/>
       <use xlink:href="#DejaVuSans-32" x="95.410156"/>
      </g>
     </g>
    </g>
    <g id="xtick_3">
     <g id="line2d_5">
      <path d="M 95.071562 367.399219 
L 95.071562 21.799219 
" clip-path="url(#p73d77fda96)" style="fill: none; stroke-dasharray: 0.925,0.4; stroke-dashoffset: 0; stroke: #b0b0b0; stroke-width: 0.25"/>
     </g>
     <g id="line2d_6">
      <g>
       <use xlink:href="#mfc403a2696" x="95.071562" y="367.399219" style="stroke: #000000; stroke-width: 0.8"/>
      </g>
     </g>
     <g id="text_3">
      <!-- 0.4 -->
      <g transform="translate(87.12 381.997656) scale(0.1 -0.1)">
       <defs>
        <path id="DejaVuSans-34" d="M 2419 4116 
L 825 1625 
L 2419 1625 
L 2419 4116 
z
M 2253 4666 
L 3047 4666 
L 3047 1625 
L 3713 1625 
L 3713 1100 
L 3047 1100 
L 3047 0 
L 2419 0 
L 2419 1100 
L 313 1100 
L 313 1709 
L 2253 4666 
z
" transform="scale(0.015625)"/>
       </defs>
       <use xlink:href="#DejaVuSans-30"/>
       <use xlink:href="#DejaVuSans-2e" x="63.623047"/>
       <use xlink:href="#DejaVuSans-34" x="95.410156"/>
      </g>
     </g>
    </g>
    <g id="xtick_4">
     <g id="line2d_7">
      <path d="M 72.031562 367.399219 
L 72.031562 21.799219 
" clip-path="url(#p73d77fda96)" style="fill: none; stroke-dasharray: 0.925,0.4; stroke-dashoffset: 0; stroke: #b0b0b0; stroke-width: 0.25"/>
     </g>
     <g id="line2d_8">
      <g>
       <use xlink:href="#mfc403a2696" x="72.031562" y="367.399219" style="stroke: #000000; stroke-width: 0.8"/>
      </g>
     </g>
     <g id="text_4">
      <!-- 0.6 -->
      <g transform="translate(64.08 381.997656) scale(0.1 -0.1)">
       <defs>
        <path id="DejaVuSans-36" d="M 2113 2584 
Q 1688 2584 1439 2293 
Q 1191 2003 1191 1497 
Q 1191 994 1439 701 
Q 1688 409 2113 409 
Q 2538 409 2786 701 
Q 3034 994 3034 1497 
Q 3034 2003 2786 2293 
Q 2538 2584 2113 2584 
z
M 3366 4563 
L 3366 3988 
Q 3128 4100 2886 4159 
Q 2644 4219 2406 4219 
Q 1781 4219 1451 3797 
Q 1122 3375 1075 2522 
Q 1259 2794 1537 2939 
Q 1816 3084 2150 3084 
Q 2853 3084 3261 2657 
Q 3669 2231 3669 1497 
Q 3669 778 3244 343 
Q 2819 -91 2113 -91 
Q 1303 -91 875 529 
Q 447 1150 447 2328 
Q 447 3434 972 4092 
Q 1497 4750 2381 4750 
Q 2619 4750 2861 4703 
Q 3103 4656 3366 4563 
z
" transform="scale(0.015625)"/>
       </defs>
       <use xlink:href="#DejaVuSans-30"/>
       <use xlink:href="#DejaVuSans-2e" x="63.623047"/>
       <use xlink:href="#DejaVuSans-36" x="95.410156"/>
      </g>
     </g>
    </g>
    <g id="xtick_5">
     <g id="line2d_9">
      <path d="M 48.991562 367.399219 
L 48.991562 21.799219 
" clip-path="url(#p73d77fda96)" style="fill: none; stroke-dasharray: 0.925,0.4; stroke-dashoffset: 0; stroke: #b0b0b0; stroke-width: 0.25"/>
     </g>
     <g id="line2d_10">
      <g>
       <use xlink:href="#mfc403a2696" x="48.991562" y="367.399219" style="stroke: #000000; stroke-width: 0.8"/>
      </g>
     </g>
     <g id="text_5">
      <!-- 0.8 -->
      <g transform="translate(41.04 381.997656) scale(0.1 -0.1)">
       <defs>
        <path id="DejaVuSans-38" d="M 2034 2216 
Q 1584 2216 1326 1975 
Q 1069 1734 1069 1313 
Q 1069 891 1326 650 
Q 1584 409 2034 409 
Q 2484 409 2743 651 
Q 3003 894 3003 1313 
Q 3003 1734 2745 1975 
Q 2488 2216 2034 2216 
z
M 1403 2484 
Q 997 2584 770 2862 
Q 544 3141 544 3541 
Q 544 4100 942 4425 
Q 1341 4750 2034 4750 
Q 2731 4750 3128 4425 
Q 3525 4100 3525 3541 
Q 3525 3141 3298 2862 
Q 3072 2584 2669 2484 
Q 3125 2378 3379 2068 
Q 3634 1759 3634 1313 
Q 3634 634 3220 271 
Q 2806 -91 2034 -91 
Q 1263 -91 848 271 
Q 434 634 434 1313 
Q 434 1759 690 2068 
Q 947 2378 1403 2484 
z
M 1172 3481 
Q 1172 3119 1398 2916 
Q 1625 2713 2034 2713 
Q 2441 2713 2670 2916 
Q 2900 3119 2900 3481 
Q 2900 3844 2670 4047 
Q 2441 4250 2034 4250 
Q 1625 4250 1398 4047 
Q 1172 3844 1172 3481 
z
" transform="scale(0.015625)"/>
       </defs>
       <use xlink:href="#DejaVuSans-30"/>
       <use xlink:href="#DejaVuSans-2e" x="63.623047"/>
       <use xlink:href="#DejaVuSans-38" x="95.410156"/>
      </g>
     </g>
    </g>
    <g id="xtick_6">
     <g id="line2d_11">
      <path d="M 25.951562 367.399219 
L 25.951562 21.799219 
" clip-path="url(#p73d77fda96)" style="fill: none; stroke-dasharray: 0.925,0.4; stroke-dashoffset: 0; stroke: #b0b0b0; stroke-width: 0.25"/>
     </g>
     <g id="line2d_12">
      <g>
       <use xlink:href="#mfc403a2696" x="25.951562" y="367.399219" style="stroke: #000000; stroke-width: 0.8"/>
      </g>
     </g>
     <g id="text_6">
      <!-- 1.0 -->
      <g transform="translate(18 381.997656) scale(0.1 -0.1)">
       <defs>
        <path id="DejaVuSans-31" d="M 794 531 
L 1825 531 
L 1825 4091 
L 703 3866 
L 703 4441 
L 1819 4666 
L 2450 4666 
L 2450 531 
L 3481 531 
L 3481 0 
L 794 0 
L 794 531 
z
" transform="scale(0.015625)"/>
       </defs>
       <use xlink:href="#DejaVuSans-31"/>
       <use xlink:href="#DejaVuSans-2e" x="63.623047"/>
       <use xlink:href="#DejaVuSans-30" x="95.410156"/>
      </g>
     </g>
    </g>
   </g>
   <g id="matplotlib.axis_2">
    <g id="ytick_1">
     <g id="line2d_13">
      <path d="M 25.951562 367.399219 
L 141.151562 367.399219 
" clip-path="url(#p73d77fda96)" style="fill: none; stroke-dasharray: 0.925,0.4; stroke-dashoffset: 0; stroke: #b0b0b0; stroke-width: 0.25"/>
     </g>
     <g id="line2d_14">
      <defs>
       <path id="m7a1cdc6c5d" d="M 0 0 
L 3.5 0 
" style="stroke: #000000; stroke-width: 0.8"/>
      </defs>
      <g>
       <use xlink:href="#m7a1cdc6c5d" x="141.151562" y="367.399219" style="stroke: #000000; stroke-width: 0.8"/>
      </g>
     </g>
     <g id="text_7">
      <!-- −6 -->
      <g transform="translate(148.151562 371.198438) scale(0.1 -0.1)">
       <defs>
        <path id="DejaVuSans-2212" d="M 678 2272 
L 4684 2272 
L 4684 1741 
L 678 1741 
L 678 2272 
z
" transform="scale(0.015625)"/>
       </defs>
       <use xlink:href="#DejaVuSans-2212"/>
       <use xlink:href="#DejaVuSans-36" x="83.789062"/>
      </g>
     </g>
    </g>
    <g id="ytick_2">
     <g id="line2d_15">
      <path d="M 25.951562 309.799219 
L 141.151562 309.799219 
" clip-path="url(#p73d77fda96)" style="fill: none; stroke-dasharray: 0.925,0.4; stroke-dashoffset: 0; stroke: #b0b0b0; stroke-width: 0.25"/>
     </g>
     <g id="line2d_16">
      <g>
       <use xlink:href="#m7a1cdc6c5d" x="141.151562" y="309.799219" style="stroke: #000000; stroke-width: 0.8"/>
      </g>
     </g>
     <g id="text_8">
      <!-- −4 -->
      <g transform="translate(148.151562 313.598437) scale(0.1 -0.1)">
       <use xlink:href="#DejaVuSans-2212"/>
       <use xlink:href="#DejaVuSans-34" x="83.789062"/>
      </g>
     </g>
    </g>
    <g id="ytick_3">
     <g id="line2d_17">
      <path d="M 25.951562 252.199219 
L 141.151562 252.199219 
" clip-path="url(#p73d77fda96)" style="fill: none; stroke-dasharray: 0.925,0.4; stroke-dashoffset: 0; stroke: #b0b0b0; stroke-width: 0.25"/>
     </g>
     <g id="line2d_18">
      <g>
       <use xlink:href="#m7a1cdc6c5d" x="141.151562" y="252.199219" style="stroke: #000000; stroke-width: 0.8"/>
      </g>
     </g>
     <g id="text_9">
      <!-- −2 -->
      <g transform="translate(148.151562 255.998437) scale(0.1 -0.1)">
       <use xlink:href="#DejaVuSans-2212"/>
       <use xlink:href="#DejaVuSans-32" x="83.789062"/>
      </g>
     </g>
    </g>
    <g id="ytick_4">
     <g id="line2d_19">
      <path d="M 25.951562 194.599219 
L 141.151562 194.599219 
" clip-path="url(#p73d77fda96)" style="fill: none; stroke-dasharray: 0.925,0.4; stroke-dashoffset: 0; stroke: #b0b0b0; stroke-width: 0.25"/>
     </g>
     <g id="line2d_20">
      <g>
       <use xlink:href="#m7a1cdc6c5d" x="141.151562" y="194.599219" style="stroke: #000000; stroke-width: 0.8"/>
      </g>
     </g>
     <g id="text_10">
      <!-- 0 -->
      <g transform="translate(148.151562 198.398438) scale(0.1 -0.1)">
       <use xlink:href="#DejaVuSans-30"/>
      </g>
     </g>
    </g>
    <g id="ytick_5">
     <g id="line2d_21">
      <path d="M 25.951562 136.999219 
L 141.151562 136.999219 
" clip-path="url(#p73d77fda96)" style="fill: none; stroke-dasharray: 0.925,0.4; stroke-dashoffset: 0; stroke: #b0b0b0; stroke-width: 0.25"/>
     </g>
     <g id="line2d_22">
      <g>
       <use xlink:href="#m7a1cdc6c5d" x="141.151562" y="136.999219" style="stroke: #000000; stroke-width: 0.8"/>
      </g>
     </g>
     <g id="text_11">
      <!-- 2 -->
      <g transform="translate(148.151562 140.798438) scale(0.1 -0.1)">
       <use xlink:href="#DejaVuSans-32"/>
      </g>
     </g>
    </g>
    <g id="ytick_6">
     <g id="line2d_23">
      <path d="M 25.951562 79.399219 
L 141.151562 79.399219 
" clip-path="url(#p73d77fda96)" style="fill: none; stroke-dasharray: 0.925,0.4; stroke-dashoffset: 0; stroke: #b0b0b0; stroke-width: 0.25"/>
     </g>
     <g id="line2d_24">
      <g>
       <use xlink:href="#m7a1cdc6c5d" x="141.151562" y="79.399219" style="stroke: #000000; stroke-width: 0.8"/>
      </g>
     </g>
     <g id="text_12">
      <!-- 4 -->
      <g transform="translate(148.151562 83.198438) scale(0.1 -0.1)">
       <use xlink:href="#DejaVuSans-34"/>
      </g>
     </g>
    </g>
    <g id="ytick_7">
     <g id="line2d_25">
      <path d="M 25.951562 21.799219 
L 141.151562 21.799219 
" clip-path="url(#p73d77fda96)" style="fill: none; stroke-dasharray: 0.925,0.4; stroke-dashoffset: 0; stroke: #b0b0b0; stroke-width: 0.25"/>
     </g>
     <g id="line2d_26">
      <g>
       <use xlink:href="#m7a1cdc6c5d" x="141.151562" y="21.799219" style="stroke: #000000; stroke-width: 0.8"/>
      </g>
     </g>
     <g id="text_13">
      <!-- 6 -->
      <g transform="translate(148.151562 25.598437) scale(0.1 -0.1)">
       <use xlink:href="#DejaVuSans-36"/>
      </g>
     </g>
    </g>
   </g>
   <g id="line2d_27">
    <path d="M 140.815939 403.077344 
L 141.065851 400.659971 
L 140.950213 398.546527 
L 140.516242 396.433083 
L 140.058291 394.31964 
L 139.940912 393.262918 
L 139.940367 392.206196 
L 140.266619 390.092753 
L 140.733776 387.979309 
L 140.85942 386.922587 
L 140.840808 385.865865 
L 140.657593 384.809144 
L 139.903496 382.6957 
L 139.116702 380.582256 
L 138.92912 379.525535 
L 138.958243 378.468813 
L 139.209858 377.412091 
L 140.149118 375.298647 
L 140.622047 374.241926 
L 140.93027 373.185204 
L 140.971891 372.128482 
L 140.694709 371.07176 
L 140.112442 370.015038 
L 137.612022 366.844873 
L 137.05341 365.788151 
L 136.864542 364.731429 
L 137.097446 363.674707 
L 137.717587 362.617986 
L 140.424903 359.44782 
L 140.947664 358.391098 
L 141.008535 357.334377 
L 140.558825 356.277655 
L 139.65361 355.220933 
L 136.001881 352.050768 
L 135.220816 350.994046 
L 134.940327 349.937324 
L 135.192493 348.880602 
L 135.896299 347.82388 
L 138.703928 344.653715 
L 139.120076 343.596993 
L 139.037286 342.540271 
L 138.469089 341.48355 
L 137.541469 340.426828 
L 135.477785 338.313384 
L 134.801684 337.256662 
L 134.573182 336.199941 
L 134.814301 335.143219 
L 135.421624 334.086497 
L 136.847192 331.973053 
L 137.144983 330.916332 
L 136.899177 329.85961 
L 136.055422 328.802888 
L 134.7116 327.746166 
L 131.579588 325.632723 
L 130.487829 324.576001 
L 130.131935 323.519279 
L 130.673581 322.462557 
L 132.084393 321.405835 
L 138.43629 318.23567 
L 139.692465 317.178948 
L 139.797477 316.122226 
L 138.564718 315.065504 
L 136.063992 314.008783 
L 132.625619 312.952061 
L 125.211394 310.838617 
L 122.531447 309.781895 
L 121.251908 308.725174 
L 121.62873 307.668452 
L 123.61288 306.61173 
L 126.850659 305.555008 
L 134.567738 303.441565 
L 137.597289 302.384843 
L 139.259637 301.328121 
L 139.238108 300.271399 
L 137.532745 299.214677 
L 134.455893 298.157956 
L 123.08543 294.98779 
L 120.711381 293.931068 
L 119.719595 292.874347 
L 120.112818 291.817625 
L 121.618975 290.760903 
L 125.983512 288.647459 
L 127.750903 287.590738 
L 128.687623 286.534016 
L 128.636692 285.477294 
L 127.680723 284.420572 
L 126.103094 283.36385 
L 122.685459 281.250407 
L 121.555015 280.193685 
L 121.03723 279.136963 
L 121.049951 278.080241 
L 121.513924 275.966798 
L 121.241311 274.910076 
L 120.274524 273.853354 
L 118.584345 272.796632 
L 114.13273 270.683189 
L 112.393388 269.626467 
L 111.755526 268.569745 
L 112.657049 267.513023 
L 115.256156 266.456301 
L 119.347559 265.39958 
L 129.391783 263.286136 
L 133.431866 262.229414 
L 135.479847 261.172692 
L 134.78779 260.115971 
L 131.025075 259.059249 
L 124.380598 258.002527 
L 115.569703 256.945805 
L 96.285099 254.832362 
L 88.613498 253.77564 
L 83.892476 252.718918 
L 82.839657 251.662196 
L 85.588998 250.605474 
L 91.662788 249.548753 
L 100.0551 248.492031 
L 118.266578 246.378587 
L 125.304588 245.321865 
L 129.575052 244.265144 
L 130.641419 243.208422 
L 128.625574 242.1517 
L 124.147113 241.094978 
L 106.094946 237.924813 
L 101.789813 236.868091 
L 99.281903 235.811369 
L 98.5429 234.754647 
L 99.187554 233.697926 
L 102.098196 231.584482 
L 103.095091 230.52776 
L 103.224493 229.471038 
L 102.401432 228.414316 
L 100.809706 227.357595 
L 96.886512 225.244151 
L 95.380687 224.187429 
L 94.519511 223.130707 
L 94.29238 222.073986 
L 94.699911 219.960542 
L 94.577291 218.90382 
L 93.820344 217.847098 
L 92.355375 216.790377 
L 88.329926 214.676933 
L 86.822925 213.620211 
L 86.478071 212.563489 
L 87.760251 211.506768 
L 90.819232 210.450046 
L 95.386825 209.393324 
L 105.875934 207.27988 
L 109.492032 206.223159 
L 110.407119 205.166437 
L 107.714994 204.109715 
L 101.018599 203.052993 
L 90.565083 201.996271 
L 62.604772 199.882828 
L 48.40398 198.826106 
L 36.55597 197.769384 
L 28.701032 196.712662 
L 25.951562 195.655941 
L 28.701032 194.599219 
L 36.55597 193.542497 
L 48.40398 192.485775 
L 90.565083 189.31561 
L 101.018599 188.258888 
L 107.714994 187.202166 
L 110.407119 186.145444 
L 109.492032 185.088723 
L 105.875934 184.032001 
L 90.819232 180.861835 
L 87.760251 179.805113 
L 86.478071 178.748392 
L 86.822925 177.69167 
L 88.329926 176.634948 
L 92.355375 174.521504 
L 93.820344 173.464783 
L 94.577291 172.408061 
L 94.699911 171.351339 
L 94.29238 169.237895 
L 94.519511 168.181174 
L 95.380687 167.124452 
L 96.886512 166.06773 
L 100.809706 163.954286 
L 102.401432 162.897565 
L 103.224493 161.840843 
L 103.095091 160.784121 
L 102.098196 159.727399 
L 99.187554 157.613956 
L 98.5429 156.557234 
L 99.281903 155.500512 
L 101.789813 154.44379 
L 106.094946 153.387068 
L 111.811954 152.330347 
L 124.147113 150.216903 
L 128.625574 149.160181 
L 130.641419 148.103459 
L 129.575052 147.046738 
L 125.304588 145.990016 
L 118.266578 144.933294 
L 91.662788 141.763129 
L 85.588998 140.706407 
L 82.839657 139.649685 
L 83.892476 138.592963 
L 88.613498 137.536241 
L 96.285099 136.47952 
L 124.380598 133.309354 
L 131.025075 132.252632 
L 134.78779 131.19591 
L 135.479847 130.139189 
L 133.431866 129.082467 
L 129.391783 128.025745 
L 119.347559 125.912301 
L 115.256156 124.85558 
L 112.657049 123.798858 
L 111.755526 122.742136 
L 112.393388 121.685414 
L 114.13273 120.628692 
L 118.584345 118.515249 
L 120.274524 117.458527 
L 121.241311 116.401805 
L 121.513924 115.345083 
L 121.03723 112.174918 
L 121.555015 111.118196 
L 122.685459 110.061474 
L 127.680723 106.891309 
L 128.636692 105.834587 
L 128.687623 104.777865 
L 127.750903 103.721144 
L 125.983512 102.664422 
L 121.618975 100.550978 
L 120.112818 99.494256 
L 119.719595 98.437535 
L 120.711381 97.380813 
L 123.08543 96.324091 
L 126.548806 95.267369 
L 134.455893 93.153926 
L 137.532745 92.097204 
L 139.238108 91.040482 
L 139.259637 89.98376 
L 137.597289 88.927038 
L 134.567738 87.870316 
L 126.850659 85.756873 
L 123.61288 84.700151 
L 121.62873 83.643429 
L 121.251908 82.586707 
L 122.531447 81.529986 
L 125.211394 80.473264 
L 136.063992 77.303098 
L 138.564718 76.246377 
L 139.797477 75.189655 
L 139.692465 74.132933 
L 138.43629 73.076211 
L 136.417118 72.019489 
L 132.084393 69.906046 
L 130.673581 68.849324 
L 130.131935 67.792602 
L 130.487829 66.73588 
L 131.579588 65.679159 
L 136.055422 62.508993 
L 136.899177 61.452271 
L 137.144983 60.39555 
L 136.847192 59.338828 
L 134.814301 56.168662 
L 134.573182 55.111941 
L 134.801684 54.055219 
L 135.477785 52.998497 
L 138.469089 49.828332 
L 139.037286 48.77161 
L 139.120076 47.714888 
L 138.703928 46.658166 
L 137.890717 45.601444 
L 135.896299 43.488001 
L 135.192493 42.431279 
L 134.940327 41.374557 
L 135.220816 40.317835 
L 136.001881 39.261113 
L 138.4437 37.14767 
L 139.65361 36.090948 
L 140.558825 35.034226 
L 141.008535 33.977504 
L 140.947664 32.920783 
L 140.424903 31.864061 
L 138.605797 29.750617 
L 137.717587 28.693895 
L 137.097446 27.637174 
L 136.864542 26.580452 
L 137.05341 25.52373 
L 137.612022 24.467008 
L 140.112442 21.296843 
L 140.694709 20.240121 
L 140.971891 19.183399 
L 140.93027 18.126677 
L 140.622047 17.069956 
L 139.209858 13.89979 
L 138.958243 12.843068 
L 138.92912 11.786347 
L 139.116702 10.729625 
L 139.903496 8.616181 
L 140.657593 6.502738 
L 140.840808 5.446016 
L 140.85942 4.389294 
L 140.514051 2.27585 
L 140.058038 0.162407 
L 139.940421 -1 
L 139.940421 -1 
" clip-path="url(#p73d77fda96)" style="fill: none; stroke: #000000; stroke-width: 2; stroke-linecap: square"/>
   </g>
   <g id="patch_3">
    <path d="M 141.151562 367.399219 
L 141.151562 21.799219 
" style="fill: none; stroke: #000000; stroke-width: 0.8; stroke-linejoin: miter; stroke-linecap: square"/>
   </g>
   <g id="patch_4">
    <path d="M 25.951562 367.399219 
L 141.151562 367.399219 
" style="fill: none; stroke: #000000; stroke-width: 0.8; stroke-linejoin: miter; stroke-linecap: square"/>
   </g>
  </g>
 </g>
 <defs>
  <clipPath id="p73d77fda96">
   <rect x="25.951562" y="21.799219" width="115.2" height="345.6"/>
  </clipPath>
 </defs>
</svg>
