<?xml version="1.0" encoding="utf-8" standalone="no"?>
<!DOCTYPE svg PUBLIC "-//W3C//DTD SVG 1.1//EN"
  "http://www.w3.org/Graphics/SVG/1.1/DTD/svg11.dtd">
<svg xmlns:xlink="http://www.w3.org/1999/xlink" width="180.89375pt" height="402.077344pt" viewBox="0 0 180.89375 402.077344" xmlns="http://www.w3.org/2000/svg" version="1.1">
 <metadata>
  <rdf:RDF xmlns:dc="http://purl.org/dc/elements/1.1/" xmlns:cc="http://creativecommons.org/ns#" xmlns:rdf="http://www.w3.org/1999/02/22-rdf-syntax-ns#">
   <cc:Work>
    <dc:type rdf:resource="http://purl.org/dc/dcmitype/StillImage"/>
    <dc:date>2025-02-21T18:19:48.689795</dc:date>
    <dc:format>image/svg+xml</dc:format>
    <dc:creator>
     <cc:Agent>
      <dc:title>Matplotlib v3.8.4, https://matplotlib.org/</dc:title>
     </cc:Agent>
    </dc:creator>
   </cc:Work>
  </rdf:RDF>
 </metadata>
 <defs>
  <style type="text/css">*{stroke-linejoin: round; stroke-linecap: butt}</style>
 </defs>
 <g id="figure_1">
  <g id="patch_1">
   <path d="M 0 402.077344 
L 180.89375 402.077344 
L 180.89375 0 
L 0 0 
L 0 402.077344 
z
" style="fill: none"/>
  </g>
  <g id="axes_1">
   <g id="patch_2">
    <path d="M 25.951562 367.399219 
L 141.151562 367.399219 
L 141.151562 21.799219 
L 25.951562 21.799219 
L 25.951562 367.399219 
z
" style="fill: none"/>
   </g>
   <g id="matplotlib.axis_1">
    <g id="xtick_1">
     <g id="line2d_1">
      <path d="M 141.151562 367.399219 
L 141.151562 21.799219 
" clip-path="url(#pa98dcfbebd)" style="fill: none; stroke-dasharray: 0.925,0.4; stroke-dashoffset: 0; stroke: #b0b0b0; stroke-width: 0.25"/>
     </g>
     <g id="line2d_2">
      <defs>
       <path id="m9015844e6f" d="M 0 0 
L 0 3.5 
" style="stroke: #000000; stroke-width: 0.8"/>
      </defs>
      <g>
       <use xlink:href="#m9015844e6f" x="141.151562" y="367.399219" style="stroke: #000000; stroke-width: 0.8"/>
      </g>
     </g>
     <g id="text_1">
      <!-- 0.0 -->
      <g transform="translate(133.2 381.997656) scale(0.1 -0.1)">
       <defs>
        <path id="DejaVuSans-30" d="M 2034 4250 
Q 1547 4250 1301 3770 
Q 1056 3291 1056 2328 
Q 1056 1369 1301 889 
Q 1547 409 2034 409 
Q 2525 409 2770 889 
Q 3016 1369 3016 2328 
Q 3016 3291 2770 3770 
Q 2525 4250 2034 4250 
z
M 2034 4750 
Q 2819 4750 3233 4129 
Q 3647 3509 3647 2328 
Q 3647 1150 3233 529 
Q 2819 -91 2034 -91 
Q 1250 -91 836 529 
Q 422 1150 422 2328 
Q 422 3509 836 4129 
Q 1250 4750 2034 4750 
z
" transform="scale(0.015625)"/>
        <path id="DejaVuSans-2e" d="M 684 794 
L 1344 794 
L 1344 0 
L 684 0 
L 684 794 
z
" transform="scale(0.015625)"/>
       </defs>
       <use xlink:href="#DejaVuSans-30"/>
       <use xlink:href="#DejaVuSans-2e" x="63.623047"/>
       <use xlink:href="#DejaVuSans-30" x="95.410156"/>
      </g>
     </g>
    </g>
    <g id="xtick_2">
     <g id="line2d_3">
      <path d="M 118.111562 367.399219 
L 118.111562 21.799219 
" clip-path="url(#pa98dcfbebd)" style="fill: none; stroke-dasharray: 0.925,0.4; stroke-dashoffset: 0; stroke: #b0b0b0; stroke-width: 0.25"/>
     </g>
     <g id="line2d_4">
      <g>
       <use xlink:href="#m9015844e6f" x="118.111562" y="367.399219" style="stroke: #000000; stroke-width: 0.8"/>
      </g>
     </g>
     <g id="text_2">
      <!-- 0.2 -->
      <g transform="translate(110.16 381.997656) scale(0.1 -0.1)">
       <defs>
        <path id="DejaVuSans-32" d="M 1228 531 
L 3431 531 
L 3431 0 
L 469 0 
L 469 531 
Q 828 903 1448 1529 
Q 2069 2156 2228 2338 
Q 2531 2678 2651 2914 
Q 2772 3150 2772 3378 
Q 2772 3750 2511 3984 
Q 2250 4219 1831 4219 
Q 1534 4219 1204 4116 
Q 875 4013 500 3803 
L 500 4441 
Q 881 4594 1212 4672 
Q 1544 4750 1819 4750 
Q 2544 4750 2975 4387 
Q 3406 4025 3406 3419 
Q 3406 3131 3298 2873 
Q 3191 2616 2906 2266 
Q 2828 2175 2409 1742 
Q 1991 1309 1228 531 
z
" transform="scale(0.015625)"/>
       </defs>
       <use xlink:href="#DejaVuSans-30"/>
       <use xlink:href="#DejaVuSans-2e" x="63.623047"/>
       <use xlink:href="#DejaVuSans-32" x="95.410156"/>
      </g>
     </g>
    </g>
    <g id="xtick_3">
     <g id="line2d_5">
      <path d="M 95.071562 367.399219 
L 95.071562 21.799219 
" clip-path="url(#pa98dcfbebd)" style="fill: none; stroke-dasharray: 0.925,0.4; stroke-dashoffset: 0; stroke: #b0b0b0; stroke-width: 0.25"/>
     </g>
     <g id="line2d_6">
      <g>
       <use xlink:href="#m9015844e6f" x="95.071562" y="367.399219" style="stroke: #000000; stroke-width: 0.8"/>
      </g>
     </g>
     <g id="text_3">
      <!-- 0.4 -->
      <g transform="translate(87.12 381.997656) scale(0.1 -0.1)">
       <defs>
        <path id="DejaVuSans-34" d="M 2419 4116 
L 825 1625 
L 2419 1625 
L 2419 4116 
z
M 2253 4666 
L 3047 4666 
L 3047 1625 
L 3713 1625 
L 3713 1100 
L 3047 1100 
L 3047 0 
L 2419 0 
L 2419 1100 
L 313 1100 
L 313 1709 
L 2253 4666 
z
" transform="scale(0.015625)"/>
       </defs>
       <use xlink:href="#DejaVuSans-30"/>
       <use xlink:href="#DejaVuSans-2e" x="63.623047"/>
       <use xlink:href="#DejaVuSans-34" x="95.410156"/>
      </g>
     </g>
    </g>
    <g id="xtick_4">
     <g id="line2d_7">
      <path d="M 72.031562 367.399219 
L 72.031562 21.799219 
" clip-path="url(#pa98dcfbebd)" style="fill: none; stroke-dasharray: 0.925,0.4; stroke-dashoffset: 0; stroke: #b0b0b0; stroke-width: 0.25"/>
     </g>
     <g id="line2d_8">
      <g>
       <use xlink:href="#m9015844e6f" x="72.031562" y="367.399219" style="stroke: #000000; stroke-width: 0.8"/>
      </g>
     </g>
     <g id="text_4">
      <!-- 0.6 -->
      <g transform="translate(64.08 381.997656) scale(0.1 -0.1)">
       <defs>
        <path id="DejaVuSans-36" d="M 2113 2584 
Q 1688 2584 1439 2293 
Q 1191 2003 1191 1497 
Q 1191 994 1439 701 
Q 1688 409 2113 409 
Q 2538 409 2786 701 
Q 3034 994 3034 1497 
Q 3034 2003 2786 2293 
Q 2538 2584 2113 2584 
z
M 3366 4563 
L 3366 3988 
Q 3128 4100 2886 4159 
Q 2644 4219 2406 4219 
Q 1781 4219 1451 3797 
Q 1122 3375 1075 2522 
Q 1259 2794 1537 2939 
Q 1816 3084 2150 3084 
Q 2853 3084 3261 2657 
Q 3669 2231 3669 1497 
Q 3669 778 3244 343 
Q 2819 -91 2113 -91 
Q 1303 -91 875 529 
Q 447 1150 447 2328 
Q 447 3434 972 4092 
Q 1497 4750 2381 4750 
Q 2619 4750 2861 4703 
Q 3103 4656 3366 4563 
z
" transform="scale(0.015625)"/>
       </defs>
       <use xlink:href="#DejaVuSans-30"/>
       <use xlink:href="#DejaVuSans-2e" x="63.623047"/>
       <use xlink:href="#DejaVuSans-36" x="95.410156"/>
      </g>
     </g>
    </g>
    <g id="xtick_5">
     <g id="line2d_9">
      <path d="M 48.991562 367.399219 
L 48.991562 21.799219 
" clip-path="url(#pa98dcfbebd)" style="fill: none; stroke-dasharray: 0.925,0.4; stroke-dashoffset: 0; stroke: #b0b0b0; stroke-width: 0.25"/>
     </g>
     <g id="line2d_10">
      <g>
       <use xlink:href="#m9015844e6f" x="48.991562" y="367.399219" style="stroke: #000000; stroke-width: 0.8"/>
      </g>
     </g>
     <g id="text_5">
      <!-- 0.8 -->
      <g transform="translate(41.04 381.997656) scale(0.1 -0.1)">
       <defs>
        <path id="DejaVuSans-38" d="M 2034 2216 
Q 1584 2216 1326 1975 
Q 1069 1734 1069 1313 
Q 1069 891 1326 650 
Q 1584 409 2034 409 
Q 2484 409 2743 651 
Q 3003 894 3003 1313 
Q 3003 1734 2745 1975 
Q 2488 2216 2034 2216 
z
M 1403 2484 
Q 997 2584 770 2862 
Q 544 3141 544 3541 
Q 544 4100 942 4425 
Q 1341 4750 2034 4750 
Q 2731 4750 3128 4425 
Q 3525 4100 3525 3541 
Q 3525 3141 3298 2862 
Q 3072 2584 2669 2484 
Q 3125 2378 3379 2068 
Q 3634 1759 3634 1313 
Q 3634 634 3220 271 
Q 2806 -91 2034 -91 
Q 1263 -91 848 271 
Q 434 634 434 1313 
Q 434 1759 690 2068 
Q 947 2378 1403 2484 
z
M 1172 3481 
Q 1172 3119 1398 2916 
Q 1625 2713 2034 2713 
Q 2441 2713 2670 2916 
Q 2900 3119 2900 3481 
Q 2900 3844 2670 4047 
Q 2441 4250 2034 4250 
Q 1625 4250 1398 4047 
Q 1172 3844 1172 3481 
z
" transform="scale(0.015625)"/>
       </defs>
       <use xlink:href="#DejaVuSans-30"/>
       <use xlink:href="#DejaVuSans-2e" x="63.623047"/>
       <use xlink:href="#DejaVuSans-38" x="95.410156"/>
      </g>
     </g>
    </g>
    <g id="xtick_6">
     <g id="line2d_11">
      <path d="M 25.951562 367.399219 
L 25.951562 21.799219 
" clip-path="url(#pa98dcfbebd)" style="fill: none; stroke-dasharray: 0.925,0.4; stroke-dashoffset: 0; stroke: #b0b0b0; stroke-width: 0.25"/>
     </g>
     <g id="line2d_12">
      <g>
       <use xlink:href="#m9015844e6f" x="25.951562" y="367.399219" style="stroke: #000000; stroke-width: 0.8"/>
      </g>
     </g>
     <g id="text_6">
      <!-- 1.0 -->
      <g transform="translate(18 381.997656) scale(0.1 -0.1)">
       <defs>
        <path id="DejaVuSans-31" d="M 794 531 
L 1825 531 
L 1825 4091 
L 703 3866 
L 703 4441 
L 1819 4666 
L 2450 4666 
L 2450 531 
L 3481 531 
L 3481 0 
L 794 0 
L 794 531 
z
" transform="scale(0.015625)"/>
       </defs>
       <use xlink:href="#DejaVuSans-31"/>
       <use xlink:href="#DejaVuSans-2e" x="63.623047"/>
       <use xlink:href="#DejaVuSans-30" x="95.410156"/>
      </g>
     </g>
    </g>
   </g>
   <g id="matplotlib.axis_2">
    <g id="ytick_1">
     <g id="line2d_13">
      <path d="M 25.951562 367.399219 
L 141.151562 367.399219 
" clip-path="url(#pa98dcfbebd)" style="fill: none; stroke-dasharray: 0.925,0.4; stroke-dashoffset: 0; stroke: #b0b0b0; stroke-width: 0.25"/>
     </g>
     <g id="line2d_14">
      <defs>
       <path id="m631b9cfbe1" d="M 0 0 
L 3.5 0 
" style="stroke: #000000; stroke-width: 0.8"/>
      </defs>
      <g>
       <use xlink:href="#m631b9cfbe1" x="141.151562" y="367.399219" style="stroke: #000000; stroke-width: 0.8"/>
      </g>
     </g>
     <g id="text_7">
      <!-- −6 -->
      <g transform="translate(148.151562 371.198438) scale(0.1 -0.1)">
       <defs>
        <path id="DejaVuSans-2212" d="M 678 2272 
L 4684 2272 
L 4684 1741 
L 678 1741 
L 678 2272 
z
" transform="scale(0.015625)"/>
       </defs>
       <use xlink:href="#DejaVuSans-2212"/>
       <use xlink:href="#DejaVuSans-36" x="83.789062"/>
      </g>
     </g>
    </g>
    <g id="ytick_2">
     <g id="line2d_15">
      <path d="M 25.951562 309.799219 
L 141.151562 309.799219 
" clip-path="url(#pa98dcfbebd)" style="fill: none; stroke-dasharray: 0.925,0.4; stroke-dashoffset: 0; stroke: #b0b0b0; stroke-width: 0.25"/>
     </g>
     <g id="line2d_16">
      <g>
       <use xlink:href="#m631b9cfbe1" x="141.151562" y="309.799219" style="stroke: #000000; stroke-width: 0.8"/>
      </g>
     </g>
     <g id="text_8">
      <!-- −4 -->
      <g transform="translate(148.151562 313.598437) scale(0.1 -0.1)">
       <use xlink:href="#DejaVuSans-2212"/>
       <use xlink:href="#DejaVuSans-34" x="83.789062"/>
      </g>
     </g>
    </g>
    <g id="ytick_3">
     <g id="line2d_17">
      <path d="M 25.951562 252.199219 
L 141.151562 252.199219 
" clip-path="url(#pa98dcfbebd)" style="fill: none; stroke-dasharray: 0.925,0.4; stroke-dashoffset: 0; stroke: #b0b0b0; stroke-width: 0.25"/>
     </g>
     <g id="line2d_18">
      <g>
       <use xlink:href="#m631b9cfbe1" x="141.151562" y="252.199219" style="stroke: #000000; stroke-width: 0.8"/>
      </g>
     </g>
     <g id="text_9">
      <!-- −2 -->
      <g transform="translate(148.151562 255.998437) scale(0.1 -0.1)">
       <use xlink:href="#DejaVuSans-2212"/>
       <use xlink:href="#DejaVuSans-32" x="83.789062"/>
      </g>
     </g>
    </g>
    <g id="ytick_4">
     <g id="line2d_19">
      <path d="M 25.951562 194.599219 
L 141.151562 194.599219 
" clip-path="url(#pa98dcfbebd)" style="fill: none; stroke-dasharray: 0.925,0.4; stroke-dashoffset: 0; stroke: #b0b0b0; stroke-width: 0.25"/>
     </g>
     <g id="line2d_20">
      <g>
       <use xlink:href="#m631b9cfbe1" x="141.151562" y="194.599219" style="stroke: #000000; stroke-width: 0.8"/>
      </g>
     </g>
     <g id="text_10">
      <!-- 0 -->
      <g transform="translate(148.151562 198.398438) scale(0.1 -0.1)">
       <use xlink:href="#DejaVuSans-30"/>
      </g>
     </g>
    </g>
    <g id="ytick_5">
     <g id="line2d_21">
      <path d="M 25.951562 136.999219 
L 141.151562 136.999219 
" clip-path="url(#pa98dcfbebd)" style="fill: none; stroke-dasharray: 0.925,0.4; stroke-dashoffset: 0; stroke: #b0b0b0; stroke-width: 0.25"/>
     </g>
     <g id="line2d_22">
      <g>
       <use xlink:href="#m631b9cfbe1" x="141.151562" y="136.999219" style="stroke: #000000; stroke-width: 0.8"/>
      </g>
     </g>
     <g id="text_11">
      <!-- 2 -->
      <g transform="translate(148.151562 140.798438) scale(0.1 -0.1)">
       <use xlink:href="#DejaVuSans-32"/>
      </g>
     </g>
    </g>
    <g id="ytick_6">
     <g id="line2d_23">
      <path d="M 25.951562 79.399219 
L 141.151562 79.399219 
" clip-path="url(#pa98dcfbebd)" style="fill: none; stroke-dasharray: 0.925,0.4; stroke-dashoffset: 0; stroke: #b0b0b0; stroke-width: 0.25"/>
     </g>
     <g id="line2d_24">
      <g>
       <use xlink:href="#m631b9cfbe1" x="141.151562" y="79.399219" style="stroke: #000000; stroke-width: 0.8"/>
      </g>
     </g>
     <g id="text_12">
      <!-- 4 -->
      <g transform="translate(148.151562 83.198438) scale(0.1 -0.1)">
       <use xlink:href="#DejaVuSans-34"/>
      </g>
     </g>
    </g>
    <g id="ytick_7">
     <g id="line2d_25">
      <path d="M 25.951562 21.799219 
L 141.151562 21.799219 
" clip-path="url(#pa98dcfbebd)" style="fill: none; stroke-dasharray: 0.925,0.4; stroke-dashoffset: 0; stroke: #b0b0b0; stroke-width: 0.25"/>
     </g>
     <g id="line2d_26">
      <g>
       <use xlink:href="#m631b9cfbe1" x="141.151562" y="21.799219" style="stroke: #000000; stroke-width: 0.8"/>
      </g>
     </g>
     <g id="text_13">
      <!-- 6 -->
      <g transform="translate(148.151562 25.598437) scale(0.1 -0.1)">
       <use xlink:href="#DejaVuSans-36"/>
      </g>
     </g>
    </g>
   </g>
   <g id="line2d_27">
    <path d="M 141.132286 403.077344 
L 141.018599 379.525535 
L 141.098176 361.561264 
L 140.886814 358.391098 
L 140.251068 352.050768 
L 140.2416 349.937324 
L 140.472936 346.767159 
L 140.695454 343.596993 
L 140.632952 341.48355 
L 140.348154 339.370106 
L 139.550484 335.143219 
L 139.420477 333.029775 
L 139.642952 330.916332 
L 140.4326 327.746166 
L 140.848394 325.632723 
L 140.890506 324.576001 
L 140.77391 323.519279 
L 140.478505 322.462557 
L 140.001536 321.405835 
L 139.359285 320.349113 
L 137.733938 318.23567 
L 136.03852 316.122226 
L 135.323524 315.065504 
L 134.769032 314.008783 
L 134.408626 312.952061 
L 134.253188 311.895339 
L 134.288416 310.838617 
L 134.753738 308.725174 
L 135.280344 306.61173 
L 135.371269 305.555008 
L 135.259454 304.498286 
L 134.905947 303.441565 
L 134.301925 302.384843 
L 133.472189 301.328121 
L 129.433241 297.101234 
L 128.776235 296.044512 
L 128.466552 294.98779 
L 128.567773 293.931068 
L 129.103808 292.874347 
L 130.053519 291.817625 
L 131.350337 290.760903 
L 137.493567 286.534016 
L 138.529889 285.477294 
L 139.118151 284.420572 
L 139.2004 283.36385 
L 138.772761 282.307129 
L 137.887361 281.250407 
L 136.647733 280.193685 
L 132.347288 277.02352 
L 131.277431 275.966798 
L 130.618877 274.910076 
L 130.44144 273.853354 
L 130.752314 272.796632 
L 131.492541 271.73991 
L 133.727829 269.626467 
L 134.849833 268.569745 
L 135.696519 267.513023 
L 136.073654 266.456301 
L 135.827791 265.39958 
L 134.866771 264.342858 
L 133.173943 263.286136 
L 130.814192 262.229414 
L 124.732929 260.115971 
L 118.432942 258.002527 
L 115.868999 256.945805 
L 114.008375 255.889083 
L 113.010624 254.832362 
L 112.951252 253.77564 
L 113.811762 252.718918 
L 115.480119 251.662196 
L 117.76185 250.605474 
L 125.589621 247.435309 
L 127.58972 246.378587 
L 128.9103 245.321865 
L 129.439558 244.265144 
L 129.164488 243.208422 
L 128.173111 242.1517 
L 126.644795 241.094978 
L 123.018472 238.981535 
L 121.50858 237.924813 
L 120.566078 236.868091 
L 120.392247 235.811369 
L 121.096039 234.754647 
L 122.676709 233.697926 
L 125.018736 232.641204 
L 131.011866 230.52776 
L 133.991195 229.471038 
L 136.457408 228.414316 
L 138.053913 227.357595 
L 138.487167 226.300873 
L 137.559567 225.244151 
L 135.192263 224.187429 
L 131.43513 223.130707 
L 126.462615 222.073986 
L 114.072351 219.960542 
L 100.955021 217.847098 
L 95.056837 216.790377 
L 89.974341 215.733655 
L 85.856997 214.676933 
L 82.728715 213.620211 
L 80.487971 212.563489 
L 78.922541 211.506768 
L 76.591614 209.393324 
L 75.142992 208.336602 
L 73.090444 207.27988 
L 70.214042 206.223159 
L 66.405147 205.166437 
L 61.684048 204.109715 
L 50.232776 201.996271 
L 38.339554 199.882828 
L 33.267494 198.826106 
L 29.318501 197.769384 
L 26.811129 196.712662 
L 25.951562 195.655941 
L 26.811129 194.599219 
L 29.318501 193.542497 
L 33.267494 192.485775 
L 38.339554 191.429053 
L 61.684048 187.202166 
L 66.405147 186.145444 
L 70.214042 185.088723 
L 73.090444 184.032001 
L 75.142992 182.975279 
L 76.591614 181.918557 
L 78.922541 179.805113 
L 80.487971 178.748392 
L 82.728715 177.69167 
L 85.856997 176.634948 
L 89.974341 175.578226 
L 95.056837 174.521504 
L 107.408327 172.408061 
L 120.555767 170.294617 
L 126.462615 169.237895 
L 131.43513 168.181174 
L 135.192263 167.124452 
L 137.559567 166.06773 
L 138.487167 165.011008 
L 138.053913 163.954286 
L 136.457408 162.897565 
L 133.991195 161.840843 
L 125.018736 158.670677 
L 122.676709 157.613956 
L 121.096039 156.557234 
L 120.392247 155.500512 
L 120.566078 154.44379 
L 121.50858 153.387068 
L 123.018472 152.330347 
L 126.644795 150.216903 
L 128.173111 149.160181 
L 129.164488 148.103459 
L 129.439558 147.046738 
L 128.9103 145.990016 
L 127.58972 144.933294 
L 125.589621 143.876572 
L 120.400743 141.763129 
L 117.76185 140.706407 
L 115.480119 139.649685 
L 113.811762 138.592963 
L 112.951252 137.536241 
L 113.010624 136.47952 
L 114.008375 135.422798 
L 115.868999 134.366076 
L 118.432942 133.309354 
L 124.732929 131.19591 
L 130.814192 129.082467 
L 133.173943 128.025745 
L 134.866771 126.969023 
L 135.827791 125.912301 
L 136.073654 124.85558 
L 135.696519 123.798858 
L 134.849833 122.742136 
L 131.492541 119.571971 
L 130.752314 118.515249 
L 130.44144 117.458527 
L 130.618877 116.401805 
L 131.277431 115.345083 
L 132.347288 114.288362 
L 135.197966 112.174918 
L 136.647733 111.118196 
L 137.887361 110.061474 
L 138.772761 109.004753 
L 139.2004 107.948031 
L 139.118151 106.891309 
L 138.529889 105.834587 
L 137.493567 104.777865 
L 136.113251 103.721144 
L 131.350337 100.550978 
L 130.053519 99.494256 
L 129.103808 98.437535 
L 128.567773 97.380813 
L 128.466552 96.324091 
L 128.776235 95.267369 
L 129.433241 94.210647 
L 131.396285 92.097204 
L 133.472189 89.98376 
L 134.301925 88.927038 
L 134.905947 87.870316 
L 135.259454 86.813595 
L 135.371269 85.756873 
L 135.280344 84.700151 
L 134.288416 80.473264 
L 134.253188 79.416542 
L 134.408626 78.35982 
L 134.769032 77.303098 
L 135.323524 76.246377 
L 136.862735 74.132933 
L 139.359285 70.962768 
L 140.001536 69.906046 
L 140.478505 68.849324 
L 140.77391 67.792602 
L 140.890506 66.73588 
L 140.848394 65.679159 
L 140.4326 63.565715 
L 139.642952 60.39555 
L 139.420477 58.282106 
L 139.550484 56.168662 
L 140.144476 52.998497 
L 140.515896 50.885053 
L 140.692435 48.77161 
L 140.650238 46.658166 
L 140.226316 40.317835 
L 140.407519 37.14767 
L 141.052301 30.807339 
L 141.122998 27.637174 
L 140.984681 6.502738 
L 141.064319 -1 
L 141.064319 -1 
" clip-path="url(#pa98dcfbebd)" style="fill: none; stroke: #000000; stroke-width: 2; stroke-linecap: square"/>
   </g>
   <g id="patch_3">
    <path d="M 141.151562 367.399219 
L 141.151562 21.799219 
" style="fill: none; stroke: #000000; stroke-width: 0.8; stroke-linejoin: miter; stroke-linecap: square"/>
   </g>
   <g id="patch_4">
    <path d="M 25.951562 367.399219 
L 141.151562 367.399219 
" style="fill: none; stroke: #000000; stroke-width: 0.8; stroke-linejoin: miter; stroke-linecap: square"/>
   </g>
  </g>
 </g>
 <defs>
  <clipPath id="pa98dcfbebd">
   <rect x="25.951562" y="21.799219" width="115.2" height="345.6"/>
  </clipPath>
 </defs>
</svg>
